<svg width="62" height="62" viewBox="0 0 62 62" xmlns="http://www.w3.org/2000/svg" xmlns:xlink="http://www.w3.org/1999/xlink"><title>Group 7</title><defs><circle id="a" cx="30" cy="30" r="30"/><filter x="-50%" y="-50%" width="200%" height="200%" filterUnits="objectBoundingBox" id="b"><feMorphology radius="1" in="SourceAlpha" result="shadowSpreadInner1"/><feGaussianBlur stdDeviation="4" in="shadowSpreadInner1" result="shadowBlurInner1"/><feOffset in="shadowBlurInner1" result="shadowOffsetInner1"/><feComposite in="shadowOffsetInner1" in2="SourceAlpha" operator="arithmetic" k2="-1" k3="1" result="shadowInnerInner1"/><feColorMatrix values="0 0 0 0 0.22745098 0 0 0 0 0.878431373 0 0 0 0 1 0 0 0 1 0" in="shadowInnerInner1"/></filter><filter x="-50%" y="-50%" width="200%" height="200%" filterUnits="objectBoundingBox" id="c"><feGaussianBlur stdDeviation="2.37" in="SourceGraphic"/></filter></defs><g fill="none" fill-rule="evenodd"><g transform="translate(1 1)"><use fill="#DC2288" xlink:href="#a"/><use fill="#000" filter="url(#b)" xlink:href="#a"/><use stroke="#4FE5FF" stroke-width="2" stroke-linecap="round" stroke-linejoin="round" xlink:href="#a"/></g><path d="M17.904 11.87c1.283 0 23.622 1.009 23.622 1.009l-1.23 8.728-9.61.581s-1.169 2.882-.968 2.882c.202 0 7.494 1.19 7.494 1.19l-1.002 8.01-6.492 1.271v2.22l11.808.385s.218 9.242-.525 9.242c-.742 0-12.263 2.289-13.497 2.289s-12.575-2.768-12.575-2.768 1.692-35.04 2.975-35.04z" fill="#6B32A3" opacity=".312" filter="url(#c)" transform="translate(1 1)"/><path fill="#FFF" d="M20.912 46h17.637v-2.641H23.85V32.24h11.375v-2.641H23.85V18.693h13.93v-2.641H20.913z"/></g></svg>