<svg width="62" height="62" viewBox="0 0 62 62" xmlns="http://www.w3.org/2000/svg" xmlns:xlink="http://www.w3.org/1999/xlink"><title>Group 2</title><defs><ellipse id="a" cx="30" cy="30" rx="30" ry="30"/><filter x="-50%" y="-50%" width="200%" height="200%" filterUnits="objectBoundingBox" id="b"><feMorphology radius="1" in="SourceAlpha" result="shadowSpreadInner1"/><feGaussianBlur stdDeviation="4" in="shadowSpreadInner1" result="shadowBlurInner1"/><feOffset in="shadowBlurInner1" result="shadowOffsetInner1"/><feComposite in="shadowOffsetInner1" in2="SourceAlpha" operator="arithmetic" k2="-1" k3="1" result="shadowInnerInner1"/><feColorMatrix values="0 0 0 0 0.22745098 0 0 0 0 0.878431373 0 0 0 0 1 0 0 0 1 0" in="shadowInnerInner1"/></filter><filter x="-50%" y="-50%" width="200%" height="200%" filterUnits="objectBoundingBox" id="c"><feGaussianBlur stdDeviation="2.37" in="SourceGraphic"/></filter></defs><g fill="none" fill-rule="evenodd"><g transform="translate(1 1)"><use fill="#DC2288" xlink:href="#a"/><use fill="#000" filter="url(#b)" xlink:href="#a"/><use stroke="#4FE5FF" stroke-width="2" stroke-linecap="round" stroke-linejoin="round" xlink:href="#a"/></g><path d="M43.93 12.703l1.792 33.333H37.69l-.763-14.077-5.074 11.058h-5.768l-5.184-9.722 1.045 12.487s-10.517.944-10.517.254 2.202-33.157 2.202-33.157l7.27-.849s8.222 10.186 8.222 9.577c0-.61 8.567-9.178 8.567-9.178l6.24.274z" fill="#6B32A3" opacity=".312" filter="url(#c)" transform="translate(1 1)"/><path d="M15.381 46h2.94l1.661-20.96c.128-1.618.086-4.26.086-4.26h.085s.937 2.77 1.619 4.26L28.8 40.42h2.769l7.029-15.38c.681-1.533 1.576-4.174 1.576-4.174h.085s-.042 2.556.085 4.175L42.007 46h2.94L42.56 16.052h-3.025l-7.838 17.594c-.682 1.533-1.492 3.663-1.492 3.663h-.085s-.767-2.13-1.448-3.663l-7.839-17.594h-3.067L15.381 46z" fill="#FFF"/></g></svg>