<svg width="2301" height="700" viewBox="0 0 2301 700" xmlns="http://www.w3.org/2000/svg"><title>background pattern 2</title><g fill="none" fill-rule="evenodd"><path fill="#010C28" d="M150.663 71.386l-35.355-35.355L150.663.675l35.355 35.356zM36.112 185.937L.756 150.582l35.356-35.355 35.355 35.355zm76.368-76.367L77.123 74.214l35.355-35.355 35.356 35.355zm-38.184 38.184L38.94 112.398l35.356-35.355 35.355 35.355zm0-76.368L38.94 36.031 74.296.675l35.355 35.356zM36.112 109.57L.756 74.214 36.112 38.86l35.355 35.355z"/><path fill="#06103C" d="M74.296 605.959L38.94 570.603l35.356-35.355 35.355 35.355z"/><path fill="#001032" d="M112.48 567.775L77.123 532.42l35.355-35.356 35.356 35.356z"/><path fill="#030E2E" d="M36.112 644.142L.756 608.787l35.356-35.355 35.355 35.355z"/><path fill="#001032" d="M150.663 529.591l-35.355-35.355 35.355-35.355 35.355 35.355z"/><path fill="#081133" d="M188.847 491.407l-35.355-35.355 35.355-35.355 35.355 35.355z"/><path fill="#010C28" d="M608.868 71.386l-35.355-35.355L608.868.675l35.356 35.356z"/><path fill="#040B2B" d="M494.317 185.937l-35.355-35.355 35.355-35.355 35.355 35.355z"/><path fill="#050D33" d="M379.766 300.489l-35.356-35.356 35.356-35.355 35.355 35.355z"/><path fill="#08103A" d="M265.214 415.04l-35.355-35.355 35.355-35.356 35.356 35.356z"/><path fill="#010C28" d="M570.685 109.57l-35.356-35.356 35.356-35.355 35.355 35.355z"/><path fill="#040B2B" d="M532.5 147.754l-35.355-35.356 35.356-35.355 35.355 35.355z"/><path fill="#040D33" d="M456.133 224.121l-35.355-35.355 35.355-35.356 35.356 35.356z"/><path fill="#070F31" d="M417.95 262.305l-35.356-35.356 35.355-35.355 35.356 35.355z"/><path fill="#050D33" d="M341.582 338.672l-35.355-35.355 35.355-35.355 35.355 35.355z"/><path fill="#00112E" d="M303.398 376.856l-35.355-35.355 35.355-35.356 35.356 35.356z"/><path fill="#071037" d="M227.03 453.224l-35.355-35.356 35.356-35.355 35.355 35.355z"/><path fill="#000B25" d="M36.112 415.04L.756 379.685l35.356-35.356 35.355 35.356z"/><path fill="#040D34" d="M74.296 376.856L38.94 341.501l35.356-35.356 35.355 35.356z"/><path fill="#010C28" d="M379.766 71.386L344.41 36.031 379.766.675l35.355 35.356z"/><path fill="#040B2B" d="M265.214 185.937l-35.355-35.355 35.355-35.355 35.356 35.355z"/><path fill="#000E26" d="M150.663 300.489l-35.355-35.356 35.355-35.355 35.355 35.355z"/><path fill="#040D34" d="M341.582 109.57l-35.355-35.356 35.355-35.355 35.355 35.355z"/><path fill="#040B2B" d="M303.398 147.754l-35.355-35.356 35.355-35.355 35.356 35.355zm-76.368 76.367l-35.355-35.355 35.356-35.356 35.355 35.356zm-38.183 38.184l-35.355-35.356 35.355-35.355 35.355 35.355z"/><path fill="#000E26" d="M112.48 338.672l-35.356-35.355 35.355-35.355 35.356 35.355z"/><path fill="#001043" d="M112.48 644.142l-35.356-35.355 35.355-35.355 35.356 35.355z"/><path fill="#030E2E" d="M36.112 720.51L.756 685.155l35.356-35.356 35.355 35.356z"/><path fill="#091236" d="M150.663 605.959l-35.355-35.356 35.355-35.355 35.355 35.355z"/><path fill="#0B1644" d="M74.296 682.326L38.94 646.971l35.356-35.355 35.355 35.355z"/><path fill="#0A1339" d="M188.847 567.775l-35.355-35.355 35.355-35.356 35.355 35.356z"/><path fill="#01143D" d="M227.03 529.591l-35.355-35.355 35.356-35.355 35.355 35.355z"/><path fill="#010C28" d="M647.052 109.57l-35.355-35.356 35.355-35.355 35.355 35.355z"/><path fill="#040D33" d="M532.5 224.121l-35.355-35.355 35.356-35.356 35.355 35.356z"/><path fill="#011332" d="M417.95 338.672l-35.356-35.355 35.355-35.355 35.356 35.355z"/><path fill="#08103A" d="M303.398 453.224l-35.355-35.356 35.355-35.355 35.356 35.355z"/><path fill="#010C28" d="M685.236 71.386L649.88 36.031 685.236.675l35.355 35.356z"/><path fill="#040B2B" d="M608.868 147.754l-35.355-35.356 35.355-35.355 35.356 35.355z"/><path fill="#050B27" d="M570.685 185.937l-35.356-35.355 35.356-35.355 35.355 35.355z"/><path fill="#070E2C" d="M494.317 262.305l-35.355-35.356 35.355-35.355 35.355 35.355z"/><path fill="#00112E" d="M456.133 300.489l-35.355-35.356 35.355-35.355 35.356 35.355zm-76.367 76.367l-35.356-35.355 35.356-35.356 35.355 35.356z"/><path fill="#020C35" d="M341.582 415.04l-35.355-35.355 35.355-35.356 35.355 35.356z"/><path fill="#061342" d="M265.214 491.407l-35.355-35.355 35.355-35.355 35.356 35.355z"/><path fill="#000B25" d="M36.112 567.775L.756 532.42l35.356-35.356 35.355 35.356zm38.184-38.184L38.94 494.236l35.356-35.355 35.355 35.355z"/><path fill="#001032" d="M112.48 491.407l-35.356-35.355 35.355-35.355 35.356 35.355zm38.183-38.183l-35.355-35.356 35.355-35.355 35.355 35.355z"/><path fill="#040B2B" d="M456.133 147.754l-35.355-35.356 35.355-35.355 35.356 35.355z"/><path fill="#030B2C" d="M341.582 262.305l-35.355-35.356 35.355-35.355 35.355 35.355z"/><path fill="#060D2D" d="M227.03 376.856l-35.355-35.355 35.356-35.356 35.355 35.356z"/><path fill="#010C28" d="M532.5 71.386l-35.355-35.355L532.501.675l35.355 35.356z"/><path fill="#050A1F" d="M494.317 109.57l-35.355-35.356 35.355-35.355 35.355 35.355z"/><path fill="#020A2B" d="M417.95 185.937l-35.356-35.355 35.355-35.355 35.356 35.355z"/><path fill="#030B2C" d="M379.766 224.121l-35.356-35.355 35.356-35.356 35.355 35.356z"/><path fill="#040D33" d="M303.398 300.489l-35.355-35.356 35.355-35.355 35.356 35.355z"/><path fill="#000F27" d="M265.214 338.672l-35.355-35.355 35.355-35.355 35.356 35.355z"/><path fill="#070F31" d="M188.847 415.04l-35.355-35.355 35.355-35.356 35.355 35.356z"/><path fill="#040D34" d="M36.112 491.407L.756 456.052l35.356-35.355 35.355 35.355z"/><path fill="#000B25" d="M74.296 453.224L38.94 417.868l35.356-35.355 35.355 35.355z"/><path fill="#050C2C" d="M112.48 415.04l-35.356-35.355 35.355-35.356 35.356 35.356z"/><path fill="#040D34" d="M417.95 109.57l-35.356-35.356L417.95 38.86l35.356 35.355z"/><path fill="#000C2E" d="M303.398 224.121l-35.355-35.355 35.355-35.356 35.356 35.356z"/><path fill="#011028" d="M188.847 338.672l-35.355-35.355 35.355-35.355 35.355 35.355z"/><path fill="#010C28" d="M456.133 71.386l-35.355-35.355L456.133.675l35.356 35.356z"/><path fill="#040B2B" d="M379.766 147.754l-35.356-35.356 35.356-35.355 35.355 35.355zm-38.184 38.183l-35.355-35.355 35.355-35.355 35.355 35.355zm-76.368 76.368l-35.355-35.356 35.355-35.355 35.356 35.355z"/><path fill="#000D23" d="M227.03 300.489l-35.355-35.356 35.356-35.355 35.355 35.355z"/><path fill="#000829" d="M150.663 376.856l-35.355-35.355 35.355-35.356 35.355 35.356z"/><path fill="#050C2C" d="M36.112 338.672L.756 303.317l35.356-35.355 35.355 35.355z"/><path fill="#040B2B" d="M227.03 147.754l-35.355-35.356 35.356-35.355 35.355 35.355z"/><path fill="#050D25" d="M112.48 262.305l-35.356-35.356 35.355-35.355 35.356 35.355z"/><path fill="#010C28" d="M303.398 71.386l-35.355-35.355L303.398.675l35.356 35.356zm-38.184 38.184L229.86 74.214l35.355-35.355 35.356 35.355z"/><path fill="#040B2B" d="M188.847 185.937l-35.355-35.355 35.355-35.355 35.355 35.355zm-38.184 38.184l-35.355-35.355 35.355-35.356 35.355 35.356z"/><path fill="#050C2C" d="M74.296 300.489L38.94 265.133l35.356-35.355 35.355 35.355z"/><path fill="#040D34" d="M188.847 109.57l-35.355-35.356 35.355-35.355 35.355 35.355zM74.296 224.121L38.94 188.766l35.356-35.356 35.355 35.356z"/><path fill="#010C28" d="M227.03 71.386l-35.355-35.355L227.031.675l35.355 35.356z"/><path fill="#040D34" d="M150.663 147.754l-35.355-35.356 35.355-35.355 35.355 35.355z"/><path fill="#040B2B" d="M112.48 185.937l-35.356-35.355 35.355-35.355 35.356 35.355z"/><path fill="#040D34" d="M36.112 262.305L.756 226.949l35.356-35.355 35.355 35.355z"/><path fill="#001043" d="M150.663 682.326l-35.355-35.355 35.355-35.355 35.355 35.355zm-76.367 76.368L38.94 723.338l35.356-35.355 35.355 35.355z"/><path fill="#0C1643" d="M188.847 644.142l-35.355-35.355 35.355-35.355 35.355 35.355z"/><path fill="#00173E" d="M112.48 720.51l-35.356-35.355 35.355-35.356 35.356 35.356z"/><path fill="#001645" d="M227.03 605.959l-35.355-35.356 35.356-35.355 35.355 35.355z"/><path fill="#051B4A" d="M265.214 567.775L229.86 532.42l35.355-35.356 35.356 35.356z"/><path fill="#050C2B" d="M685.236 147.754l-35.355-35.356 35.355-35.355 35.355 35.355z"/><path fill="#040D33" d="M570.685 262.305l-35.356-35.356 35.356-35.355 35.355 35.355z"/><path fill="#08143C" d="M456.133 376.856l-35.355-35.355 35.355-35.356 35.356 35.356z"/><path fill="#041044" d="M341.582 491.407l-35.355-35.355 35.355-35.355 35.355 35.355z"/><path fill="#010C28" d="M723.42 109.57l-35.356-35.356L723.42 38.86l35.355 35.355z"/><path fill="#060D2A" d="M647.052 185.937l-35.355-35.355 35.355-35.355 35.355 35.355z"/><path fill="#050B26" d="M608.868 224.121l-35.355-35.355 35.355-35.356 35.356 35.356z"/><path fill="#051140" d="M532.5 300.489l-35.355-35.356 35.356-35.355 35.355 35.355z"/><path fill="#08143C" d="M494.317 338.672l-35.355-35.355 35.355-35.355 35.355 35.355z"/><path fill="#04103C" d="M417.95 415.04l-35.356-35.355 35.355-35.356 35.356 35.356z"/><path fill="#00133B" d="M379.766 453.224l-35.356-35.356 35.356-35.355 35.355 35.355z"/><path fill="#051B4A" d="M303.398 529.591l-35.355-35.355 35.355-35.355 35.356 35.355z"/><path fill="#010C28" d="M761.603 71.386l-35.355-35.355L761.603.675l35.356 35.356z"/><path fill="#011644" d="M188.847 720.51l-35.355-35.355 35.355-35.356 35.355 35.356z"/><path fill="#011C47" d="M227.03 682.326l-35.355-35.355 35.356-35.355 35.355 35.355z"/><path fill="#01173E" d="M150.663 758.694l-35.355-35.356 35.355-35.355 35.355 35.355z"/><path fill="#031A4A" d="M265.214 644.142l-35.355-35.355 35.355-35.355 35.356 35.355z"/><path fill="#041947" d="M303.398 605.959l-35.355-35.356 35.355-35.355 35.356 35.355z"/><path fill="#050C2B" d="M723.42 185.937l-35.356-35.355 35.356-35.355 35.355 35.355z"/><path fill="#00112E" d="M608.868 300.489l-35.355-35.356 35.355-35.355 35.356 35.355z"/><path fill="#081647" d="M494.317 415.04l-35.355-35.355 35.355-35.356 35.355 35.356z"/><path fill="#01194D" d="M379.766 529.591l-35.356-35.355 35.356-35.355 35.355 35.355z"/><path fill="#050C2B" d="M761.603 147.754l-35.355-35.356 35.355-35.355 35.356 35.355z"/><path fill="#040D33" d="M685.236 224.121l-35.355-35.355 35.355-35.356 35.355 35.356zm-38.184 38.184l-35.355-35.356 35.355-35.355 35.355 35.355z"/><path fill="#0C143B" d="M570.685 338.672l-35.356-35.355 35.356-35.355 35.355 35.355z"/><path fill="#081647" d="M532.5 376.856l-35.355-35.355 35.356-35.356 35.355 35.356z"/><path fill="#04124E" d="M456.133 453.224l-35.355-35.356 35.355-35.355 35.356 35.355z"/><path fill="#04144B" d="M417.95 491.407l-35.356-35.355 35.355-35.355 35.356 35.355z"/><path fill="#041947" d="M341.582 567.775l-35.355-35.355 35.355-35.356 35.355 35.356z"/><path fill="#050C2B" d="M799.787 109.57l-35.355-35.356 35.355-35.355 35.355 35.355z"/><path fill="#010C28" d="M837.97 71.386l-35.354-35.355L837.97.675l35.355 35.356z"/><path fill="#001E50" d="M227.03 758.694l-35.355-35.356 35.356-35.355 35.355 35.355z"/><path fill="#02185A" d="M265.214 720.51l-35.355-35.355 35.355-35.356 35.356 35.356z"/><path fill="#041B5E" d="M303.398 682.326l-35.355-35.355 35.355-35.355 35.356 35.355z"/><path fill="#021858" d="M341.582 644.142l-35.355-35.355 35.355-35.355 35.355 35.355z"/><path fill="#040D33" d="M761.603 224.121l-35.355-35.355 35.355-35.356 35.356 35.356z"/><path fill="#081248" d="M647.052 338.672l-35.355-35.355 35.355-35.355 35.355 35.355z"/><path fill="#051551" d="M532.5 453.224l-35.355-35.356 35.356-35.355 35.355 35.355z"/><path fill="#021756" d="M417.95 567.775l-35.356-35.355 35.355-35.356 35.356 35.356z"/><path fill="#040D33" d="M799.787 185.937l-35.355-35.355 35.355-35.355 35.355 35.355zm-76.367 76.368l-35.356-35.356 35.356-35.355 35.355 35.355z"/><path fill="#0C1337" d="M685.236 300.489l-35.355-35.356 35.355-35.355 35.355 35.355z"/><path fill="#0A144A" d="M608.868 376.856l-35.355-35.355 35.355-35.356 35.356 35.356z"/><path fill="#06154B" d="M570.685 415.04l-35.356-35.355 35.356-35.356 35.355 35.356z"/><path fill="#061555" d="M494.317 491.407l-35.355-35.355 35.355-35.355 35.355 35.355z"/><path fill="#001A54" d="M456.133 529.591l-35.355-35.355 35.355-35.355 35.356 35.355z"/><path fill="#021757" d="M379.766 605.959l-35.356-35.356 35.356-35.355 35.355 35.355z"/><path fill="#050C2B" d="M837.97 147.754l-35.354-35.356 35.355-35.355 35.355 35.355z"/><path fill="#030E2B" d="M876.155 109.57l-35.356-35.356 35.356-35.355 35.355 35.355z"/><path fill="#010C28" d="M914.338 71.386l-35.355-35.355L914.338.675l35.356 35.356z"/><path fill="#001863" d="M303.398 758.694l-35.355-35.356 35.355-35.355 35.356 35.355z"/><path fill="#00175C" d="M341.582 720.51l-35.355-35.355 35.355-35.356 35.355 35.356z"/><path fill="#011962" d="M379.766 682.326l-35.356-35.355 35.356-35.355 35.355 35.355z"/><path fill="#050C2B" d="M799.787 262.305l-35.355-35.356 35.355-35.355 35.355 35.355z"/><path fill="#061645" d="M685.236 376.856l-35.355-35.355 35.355-35.356 35.355 35.356z"/><path fill="#0A1852" d="M570.685 491.407l-35.356-35.355 35.356-35.355 35.355 35.355z"/><path fill="#0A2062" d="M456.133 605.959l-35.355-35.356 35.355-35.355 35.356 35.355z"/><path fill="#050C2B" d="M837.97 224.121l-35.354-35.355 35.355-35.356 35.355 35.356z"/><path fill="#06103B" d="M761.603 300.489l-35.355-35.356 35.355-35.355 35.356 35.355z"/><path fill="#051241" d="M723.42 338.672l-35.356-35.355 35.356-35.355 35.355 35.355z"/><path fill="#061648" d="M647.052 415.04l-35.355-35.355 35.355-35.356 35.355 35.356z"/><path fill="#021254" d="M608.868 453.224l-35.355-35.356 35.355-35.355 35.356 35.355z"/><path fill="#061A58" d="M532.5 529.591l-35.355-35.355 35.356-35.355 35.355 35.355z"/><path fill="#04215F" d="M494.317 567.775l-35.355-35.355 35.355-35.356 35.355 35.356z"/><path fill="#00215A" d="M417.95 644.142l-35.356-35.355 35.355-35.355 35.356 35.355z"/><path fill="#040B2B" d="M876.155 185.937l-35.356-35.355 35.356-35.355 35.355 35.355zm38.183-38.183l-35.355-35.356 35.355-35.355 35.356 35.355z"/><path fill="#030E2B" d="M952.522 109.57l-35.355-35.356 35.355-35.355 35.356 35.355z"/><path fill="#010C28" d="M990.706 71.386l-35.355-35.355L990.706.675l35.355 35.356z"/><path fill="#002667" d="M456.133 758.694l-35.355-35.356 35.355-35.355 35.356 35.355z"/><path fill="#021342" d="M876.155 338.672l-35.356-35.355 35.356-35.355 35.355 35.355z"/><path fill="#0B1A4D" d="M761.603 453.224l-35.355-35.356 35.355-35.355 35.356 35.355z"/><path fill="#04215F" d="M647.052 567.775l-35.355-35.355 35.355-35.356 35.355 35.356z"/><path fill="#0A2062" d="M532.5 682.326l-35.355-35.355 35.356-35.355 35.355 35.355z"/><path fill="#00112E" d="M914.338 300.489l-35.355-35.356 35.355-35.355 35.356 35.355z"/><path fill="#061A50" d="M837.97 376.856l-35.354-35.355 35.355-35.356 35.355 35.356z"/><path fill="#02164E" d="M799.787 415.04l-35.355-35.355 35.355-35.356 35.355 35.356z"/><path fill="#07175D" d="M723.42 491.407l-35.356-35.355 35.356-35.355 35.355 35.355z"/><path fill="#04215F" d="M685.236 529.591l-35.355-35.355 35.355-35.355 35.355 35.355z"/><path fill="#0B236A" d="M608.868 605.959l-35.355-35.356 35.355-35.355 35.356 35.355z"/><path fill="#021F75" d="M570.685 644.142l-35.356-35.355 35.356-35.355 35.355 35.355z"/><path fill="#031F74" d="M494.317 720.51l-35.355-35.355 35.355-35.356 35.355 35.356z"/><path fill="#040D33" d="M952.522 262.305l-35.355-35.356 35.355-35.355 35.356 35.355z"/><path fill="#060D2B" d="M990.706 224.121l-35.355-35.355 35.355-35.356 35.355 35.356z"/><path fill="#040B2B" d="M1028.89 185.937l-35.356-35.355 35.356-35.355 35.355 35.355z"/><path fill="#030E2B" d="M1067.074 147.754l-35.356-35.356 35.356-35.355 35.355 35.355z"/><path fill="#012768" d="M379.766 758.694l-35.356-35.356 35.356-35.355 35.355 35.355z"/><path fill="#031F74" d="M417.95 720.51l-35.356-35.355 35.355-35.356 35.356 35.356z"/><path fill="#021535" d="M837.97 300.489l-35.354-35.356 35.355-35.355 35.355 35.355z"/><path fill="#08194D" d="M723.42 415.04l-35.356-35.355 35.356-35.356 35.355 35.356z"/><path fill="#081D5C" d="M608.868 529.591l-35.355-35.355 35.355-35.355 35.356 35.355z"/><path fill="#021F75" d="M494.317 644.142l-35.355-35.355 35.355-35.355 35.355 35.355z"/><path fill="#040D33" d="M876.155 262.305l-35.356-35.356 35.356-35.355 35.355 35.355z"/><path fill="#021534" d="M799.787 338.672l-35.355-35.355 35.355-35.355 35.355 35.355z"/><path fill="#021342" d="M761.603 376.856l-35.355-35.355 35.355-35.356 35.356 35.356z"/><path fill="#07175D" d="M685.236 453.224l-35.355-35.356 35.355-35.355 35.355 35.355zm-38.184 38.183l-35.355-35.355 35.355-35.355 35.355 35.355z"/><path fill="#04215F" d="M570.685 567.775l-35.356-35.355 35.356-35.356 35.355 35.356zM532.5 605.959l-35.355-35.356 35.356-35.355 35.355 35.355z"/><path fill="#062172" d="M456.133 682.326l-35.355-35.355 35.355-35.355 35.356 35.355z"/><path fill="#040D33" d="M914.338 224.121l-35.355-35.355 35.355-35.356 35.356 35.356z"/><path fill="#060D2B" d="M952.522 185.937l-35.355-35.355 35.355-35.355 35.356 35.355z"/><path fill="#02102C" d="M990.706 147.754l-35.355-35.356 35.355-35.355 35.355 35.355z"/><path fill="#030E2B" d="M1028.89 109.57l-35.356-35.356 35.356-35.355 35.355 35.355z"/><path fill="#010C28" d="M1067.074 71.386l-35.356-35.355L1067.074.675l35.355 35.356z"/><path fill="#021F4E" d="M990.706 453.224l-35.355-35.356 35.355-35.355 35.355 35.355z"/><path fill="#04215F" d="M876.155 567.775l-35.356-35.355 35.356-35.356 35.355 35.356z"/><path fill="#062172" d="M761.603 682.326l-35.355-35.355 35.355-35.355 35.356 35.355z"/><path fill="#0B194E" d="M1028.89 415.04l-35.356-35.355 35.356-35.356 35.355 35.356z"/><path fill="#021761" d="M952.522 491.407l-35.355-35.355 35.355-35.355 35.356 35.355z"/><path fill="#012256" d="M914.338 529.591l-35.355-35.355 35.355-35.355 35.356 35.355z"/><path fill="#0B2674" d="M837.97 605.959l-35.354-35.356 35.355-35.355 35.355 35.355z"/><path fill="#04237E" d="M799.787 644.142l-35.355-35.355 35.355-35.355 35.355 35.355z"/><path fill="#0C2B88" d="M723.42 720.51l-35.356-35.355 35.356-35.356 35.355 35.356z"/><path fill="#0D2286" d="M685.236 758.694l-35.355-35.356 35.355-35.355 35.355 35.355z"/><path fill="#081647" d="M1067.074 376.856l-35.356-35.355 35.356-35.356 35.355 35.356z"/><path fill="#06123D" d="M1105.257 338.672l-35.355-35.355 35.355-35.355 35.356 35.355z"/><path fill="#00112E" d="M1143.441 300.489l-35.355-35.356 35.355-35.355 35.355 35.355z"/><path fill="#031129" d="M1181.625 262.305l-35.356-35.356 35.356-35.355 35.355 35.355z"/><path fill="#02102C" d="M1219.809 224.121l-35.356-35.355 35.356-35.356 35.355 35.356z"/><path fill="#010C28" d="M1257.992 185.937l-35.355-35.355 35.355-35.355 35.356 35.355zm38.184-38.183l-35.355-35.356 35.355-35.355 35.355 35.355z"/><path fill="#081C52" d="M952.522 415.04l-35.355-35.355 35.355-35.356 35.356 35.356z"/><path fill="#04215F" d="M837.97 529.591l-35.354-35.355 35.355-35.355 35.355 35.355z"/><path fill="#131A8C" d="M723.42 644.142l-35.356-35.355 35.356-35.355 35.355 35.355z"/><path fill="#042F79" d="M608.868 758.694l-35.355-35.356 35.355-35.355 35.356 35.355z"/><path fill="#08164B" d="M990.706 376.856l-35.355-35.355 35.355-35.356 35.355 35.356z"/><path fill="#0C1B55" d="M914.338 453.224l-35.355-35.356 35.355-35.355 35.356 35.355z"/><path fill="#07175D" d="M876.155 491.407l-35.356-35.355 35.356-35.355 35.355 35.355z"/><path fill="#04215F" d="M799.787 567.775l-35.355-35.355 35.355-35.356 35.355 35.356zm-38.184 38.184l-35.355-35.356 35.355-35.355 35.356 35.355z"/><path fill="#0D2A81" d="M685.236 682.326l-35.355-35.355 35.355-35.355 35.355 35.355zm-38.184 38.184l-35.355-35.355 35.355-35.356 35.355 35.356z"/><path fill="#031532" d="M1028.89 338.672l-35.356-35.355 35.356-35.355 35.355 35.355z"/><path fill="#00112E" d="M1067.074 300.489l-35.356-35.356 35.356-35.355 35.355 35.355z"/><path fill="#040D33" d="M1105.257 262.305l-35.355-35.356 35.355-35.355 35.356 35.355z"/><path fill="#040B2A" d="M1143.441 224.121l-35.355-35.355 35.355-35.356 35.355 35.356z"/><path fill="#02102C" d="M1181.625 185.937l-35.356-35.355 35.356-35.355 35.355 35.355z"/><path fill="#010C28" d="M1219.809 147.754l-35.356-35.356 35.356-35.355 35.355 35.355z"/><path fill="#020E2B" d="M1257.992 109.57l-35.355-35.356 35.355-35.355 35.356 35.355z"/><path fill="#081647" d="M914.338 376.856l-35.355-35.355 35.355-35.356 35.356 35.356z"/><path fill="#07175D" d="M799.787 491.407l-35.355-35.355 35.355-35.355 35.355 35.355z"/><path fill="#0B236A" d="M685.236 605.959l-35.355-35.356 35.355-35.355 35.355 35.355z"/><path fill="#02286A" d="M570.685 720.51l-35.356-35.355 35.356-35.356 35.355 35.356z"/><path fill="#03133E" d="M952.522 338.672l-35.355-35.355 35.355-35.355 35.356 35.355z"/><path fill="#0B1A4D" d="M876.155 415.04l-35.356-35.355 35.356-35.356 35.355 35.356z"/><path fill="#091955" d="M837.97 453.224l-35.354-35.356 35.355-35.355 35.355 35.355z"/><path fill="#07175D" d="M761.603 529.591l-35.355-35.355 35.355-35.355 35.356 35.355z"/><path fill="#04215F" d="M723.42 567.775l-35.356-35.355 35.356-35.356 35.355 35.356z"/><path fill="#001F7B" d="M647.052 644.142l-35.355-35.355 35.355-35.355 35.355 35.355z"/><path fill="#062172" d="M608.868 682.326l-35.355-35.355 35.355-35.355 35.356 35.355z"/><path fill="#0D2A81" d="M532.5 758.694l-35.355-35.356 35.356-35.355 35.355 35.355z"/><path fill="#040D33" d="M990.706 300.489l-35.355-35.356 35.355-35.355 35.355 35.355z"/><path fill="#050D2E" d="M1028.89 262.305l-35.356-35.356 35.356-35.355 35.355 35.355z"/><path fill="#040D33" d="M1067.074 224.121l-35.356-35.355 35.356-35.356 35.355 35.356z"/><path fill="#030E2B" d="M1105.257 185.937l-35.355-35.355 35.355-35.355 35.356 35.355z"/><path fill="#020E2B" d="M1143.441 147.754l-35.355-35.356 35.355-35.355 35.355 35.355zm38.184-38.184l-35.356-35.356 35.356-35.355 35.355 35.355z"/><path fill="#010C28" d="M1219.809 71.386l-35.356-35.355L1219.81.675l35.355 35.356z"/><path fill="#05214F" d="M1028.89 491.407l-35.356-35.355 35.356-35.355 35.355 35.355z"/><path fill="#031D69" d="M914.338 605.959l-35.355-35.356 35.355-35.355 35.356 35.355z"/><path fill="#0D2A81" d="M799.787 720.51l-35.355-35.355 35.355-35.356 35.355 35.356z"/><path fill="#0B194E" d="M1067.074 453.224l-35.356-35.356 35.356-35.355 35.355 35.355z"/><path fill="#012256" d="M990.706 529.591l-35.355-35.355 35.355-35.355 35.355 35.355z"/><path fill="#112261" d="M952.522 567.775l-35.355-35.355 35.355-35.356 35.356 35.356z"/><path fill="#062275" d="M876.155 644.142l-35.356-35.355 35.356-35.355 35.355 35.355z"/><path fill="#122D80" d="M837.97 682.326l-35.354-35.355 35.355-35.355 35.355 35.355z"/><path fill="#0D2A81" d="M761.603 758.694l-35.355-35.356 35.355-35.355 35.356 35.355z"/><path fill="#04124F" d="M1105.257 415.04l-35.355-35.355 35.355-35.356 35.356 35.356z"/><path fill="#031737" d="M1143.441 376.856l-35.355-35.355 35.355-35.356 35.355 35.356z"/><path fill="#021433" d="M1181.625 338.672l-35.356-35.355 35.356-35.355 35.355 35.355z"/><path fill="#030C2F" d="M1219.809 300.489l-35.356-35.356 35.356-35.355 35.355 35.355z"/><path fill="#02102C" d="M1257.992 262.305l-35.355-35.356 35.355-35.355 35.356 35.355zm38.184-38.184l-35.355-35.355 35.355-35.356 35.355 35.356z"/><path fill="#010C28" d="M1334.36 185.937l-35.355-35.355 35.355-35.355 35.355 35.355z"/><path fill="#0C2465" d="M1067.074 529.591l-35.356-35.355 35.356-35.355 35.355 35.355z"/><path fill="#102277" d="M952.522 644.142l-35.355-35.355 35.355-35.355 35.356 35.355z"/><path fill="#042F79" d="M837.97 758.694l-35.354-35.356 35.355-35.355 35.355 35.355z"/><path fill="#05214D" d="M1105.257 491.407l-35.355-35.355 35.355-35.355 35.356 35.355z"/><path fill="#04215F" d="M1028.89 567.775l-35.356-35.355 35.356-35.356 35.355 35.356z"/><path fill="#092065" d="M990.706 605.959l-35.355-35.356 35.355-35.355 35.355 35.355z"/><path fill="#132D7C" d="M914.338 682.326l-35.355-35.355 35.355-35.355 35.356 35.355z"/><path fill="#012C76" d="M876.155 720.51l-35.356-35.355 35.356-35.356 35.355 35.356z"/><path fill="#021849" d="M1143.441 453.224l-35.355-35.356 35.355-35.355 35.355 35.355z"/><path fill="#08193C" d="M1181.625 415.04l-35.356-35.355 35.356-35.356 35.355 35.356z"/><path fill="#021532" d="M1219.809 376.856l-35.356-35.355 35.356-35.356 35.355 35.356z"/><path fill="#051028" d="M1257.992 338.672l-35.355-35.355 35.355-35.355 35.356 35.355z"/><path fill="#02102C" d="M1296.176 300.489l-35.355-35.356 35.355-35.355 35.355 35.355zm38.184-38.184l-35.355-35.356 35.355-35.355 35.355 35.355z"/><path fill="#010C28" d="M1372.544 224.121l-35.356-35.355 35.356-35.356 35.355 35.356z"/><path fill="#04215F" d="M1105.257 567.775l-35.355-35.355 35.355-35.356 35.356 35.356z"/><path fill="#0E2878" d="M990.706 682.326l-35.355-35.355 35.355-35.355 35.355 35.355z"/><path fill="#031A64" d="M1143.441 529.591l-35.355-35.355 35.355-35.355 35.355 35.355z"/><path fill="#042565" d="M1067.074 605.959l-35.356-35.356 35.356-35.355 35.355 35.355z"/><path fill="#18317A" d="M1028.89 644.142l-35.356-35.355 35.356-35.355 35.355 35.355z"/><path fill="#023180" d="M952.522 720.51l-35.355-35.355 35.355-35.356 35.356 35.356z"/><path fill="#042F79" d="M914.338 758.694l-35.355-35.356 35.355-35.355 35.356 35.355z"/><path fill="#031C50" d="M1181.625 491.407l-35.356-35.355 35.356-35.355 35.355 35.355z"/><path fill="#01193F" d="M1219.809 453.224l-35.356-35.356 35.356-35.355 35.355 35.355z"/><path fill="#031045" d="M1257.992 415.04l-35.355-35.355 35.355-35.356 35.356 35.356z"/><path fill="#031333" d="M1296.176 376.856l-35.355-35.355 35.355-35.356 35.355 35.356z"/><path fill="#01102B" d="M1334.36 338.672l-35.355-35.355 35.355-35.355 35.355 35.355z"/><path fill="#02102C" d="M1372.544 300.489l-35.356-35.356 35.356-35.355 35.355 35.355z"/><path fill="#020E2B" d="M1410.727 262.305l-35.355-35.356 35.355-35.355 35.356 35.355z"/><path fill="#051D65" d="M1143.441 605.959l-35.355-35.356 35.355-35.355 35.355 35.355z"/><path fill="#0A2575" d="M1028.89 720.51l-35.356-35.355 35.356-35.356 35.355 35.356z"/><path fill="#031557" d="M1181.625 567.775l-35.356-35.355 35.356-35.356 35.355 35.356z"/><path fill="#0A226B" d="M1105.257 644.142l-35.355-35.355 35.355-35.355 35.356 35.355z"/><path fill="#041B64" d="M1067.074 682.326l-35.356-35.355 35.356-35.355 35.355 35.355z"/><path fill="#0D2A81" d="M990.706 758.694l-35.355-35.356 35.355-35.355 35.355 35.355z"/><path fill="#031B4C" d="M1219.809 529.591l-35.356-35.355 35.356-35.355 35.355 35.355z"/><path fill="#041453" d="M1257.992 491.407l-35.355-35.355 35.355-35.355 35.356 35.355z"/><path fill="#0B1247" d="M1296.176 453.224l-35.355-35.356 35.355-35.355 35.355 35.355z"/><path fill="#070D3A" d="M1334.36 415.04l-35.355-35.355 35.355-35.356 35.355 35.356z"/><path fill="#04112A" d="M1372.544 376.856l-35.356-35.355 35.356-35.356 35.355 35.356z"/><path fill="#02102C" d="M1410.727 338.672l-35.355-35.355 35.355-35.355 35.356 35.355z"/><path fill="#020E2B" d="M1448.911 300.489l-35.355-35.356 35.355-35.355 35.356 35.355z"/><path fill="#041D71" d="M1181.625 644.142l-35.356-35.355 35.356-35.355 35.355 35.355z"/><path fill="#0D1E7A" d="M1067.074 758.694l-35.356-35.356 35.356-35.355 35.355 35.355z"/><path fill="#031961" d="M1219.809 605.959l-35.356-35.356 35.356-35.355 35.355 35.355z"/><path fill="#052173" d="M1143.441 682.326l-35.355-35.355 35.355-35.355 35.355 35.355z"/><path fill="#112A74" d="M1105.257 720.51l-35.355-35.355 35.355-35.356 35.356 35.356z"/><path fill="#08184E" d="M1257.992 567.775l-35.355-35.355 35.355-35.356 35.356 35.356z"/><path fill="#091547" d="M1296.176 529.591l-35.355-35.355 35.355-35.355 35.355 35.355z"/><path fill="#071345" d="M1334.36 491.407l-35.355-35.355 35.355-35.355 35.355 35.355z"/><path fill="#080E3B" d="M1372.544 453.224l-35.356-35.356 35.356-35.355 35.355 35.355z"/><path fill="#08102D" d="M1410.727 415.04l-35.355-35.355 35.355-35.356 35.356 35.356z"/><path fill="#02102C" d="M1448.911 376.856l-35.355-35.355 35.355-35.356 35.356 35.356z"/><path fill="#020E2B" d="M1487.095 338.672l-35.355-35.355 35.355-35.355 35.355 35.355z"/><path fill="#010C28" d="M1525.279 300.489l-35.356-35.356 35.356-35.355 35.355 35.355z"/><path fill="#041B66" d="M1219.809 682.326l-35.356-35.355 35.356-35.355 35.355 35.355z"/><path fill="#001A69" d="M1257.992 644.142l-35.355-35.355 35.355-35.355 35.356 35.355z"/><path fill="#09217A" d="M1181.625 720.51l-35.356-35.355 35.356-35.356 35.355 35.356z"/><path fill="#0C2485" d="M1143.441 758.694l-35.355-35.356 35.355-35.355 35.355 35.355z"/><path fill="#0C1B4D" d="M1296.176 605.959l-35.355-35.356 35.355-35.355 35.355 35.355z"/><path fill="#031842" d="M1334.36 567.775l-35.355-35.355 35.355-35.356 35.355 35.356z"/><path fill="#07193E" d="M1372.544 529.591l-35.356-35.355 35.356-35.355 35.355 35.355z"/><path fill="#0A113D" d="M1410.727 491.407l-35.355-35.355 35.355-35.355 35.356 35.355z"/><path fill="#031333" d="M1448.911 453.224l-35.355-35.356 35.355-35.355 35.356 35.355z"/><path fill="#020E2B" d="M1487.095 415.04l-35.355-35.355 35.355-35.356 35.355 35.356z"/><path fill="#02102C" d="M1525.279 376.856l-35.356-35.355 35.356-35.356 35.355 35.356z"/><path fill="#020E2B" d="M1563.462 338.672l-35.355-35.355 35.355-35.355 35.356 35.355zm38.184-38.183l-35.355-35.356 35.355-35.355 35.356 35.355z"/><path fill="#0B1756" d="M1448.911 758.694l-35.355-35.356 35.355-35.355 35.356 35.355z"/><path fill="#05134D" d="M1487.095 720.51l-35.355-35.355 35.355-35.356 35.355 35.356z"/><path fill="#021256" d="M1525.279 682.326l-35.356-35.355 35.356-35.355 35.355 35.355z"/><path fill="#07113D" d="M1563.462 644.142l-35.355-35.355 35.355-35.355 35.356 35.355z"/><path fill="#081033" d="M1601.646 605.959l-35.355-35.356 35.355-35.355 35.356 35.355z"/><path fill="#041433" d="M1639.83 567.775l-35.355-35.355 35.355-35.356 35.355 35.356z"/><path fill="#010F2A" d="M1678.014 529.591l-35.356-35.355 35.356-35.355 35.355 35.355z"/><path fill="#020E2B" d="M1716.198 491.407l-35.356-35.355 35.356-35.355 35.355 35.355z"/><path fill="#010C28" d="M1754.381 453.224l-35.355-35.356 35.355-35.355 35.356 35.355z"/><path fill="#0C144B" d="M1525.279 758.694l-35.356-35.356 35.356-35.355 35.355 35.355z"/><path fill="#020F4C" d="M1563.462 720.51l-35.355-35.355 35.355-35.356 35.356 35.356z"/><path fill="#0B1240" d="M1601.646 682.326l-35.355-35.355 35.355-35.355 35.356 35.355z"/><path fill="#041234" d="M1639.83 644.142l-35.355-35.355 35.355-35.355 35.355 35.355z"/><path fill="#041233" d="M1678.014 605.959l-35.356-35.356 35.356-35.355 35.355 35.355z"/><path fill="#050A27" d="M1716.198 567.775l-35.356-35.355 35.356-35.356 35.355 35.356zm38.183-38.184l-35.355-35.355 35.355-35.355 35.356 35.355z"/><path fill="#020E2B" d="M1792.565 491.407l-35.355-35.355 35.355-35.355 35.355 35.355z"/><path fill="#0A156B" d="M1372.544 758.694l-35.356-35.356 35.356-35.355 35.355 35.355z"/><path fill="#061552" d="M1410.727 720.51l-35.355-35.355 35.355-35.356 35.356 35.356z"/><path fill="#021255" d="M1448.911 682.326l-35.355-35.355 35.355-35.355 35.356 35.355z"/><path fill="#081043" d="M1487.095 644.142l-35.355-35.355 35.355-35.355 35.355 35.355zm38.184-38.183l-35.356-35.356 35.356-35.355 35.355 35.355z"/><path fill="#09112F" d="M1563.462 567.775l-35.355-35.355 35.355-35.356 35.356 35.356z"/><path fill="#051330" d="M1601.646 529.591l-35.355-35.355 35.355-35.355 35.356 35.355z"/><path fill="#031028" d="M1639.83 491.407l-35.355-35.355 35.355-35.355 35.355 35.355z"/><path fill="#050A27" d="M1678.014 453.224l-35.356-35.356 35.356-35.355 35.355 35.355z"/><path fill="#020E2B" d="M1716.198 415.04l-35.356-35.355 35.356-35.356 35.355 35.356z"/><path fill="#011252" d="M1601.646 758.694l-35.355-35.356 35.355-35.355 35.356 35.355z"/><path fill="#061244" d="M1639.83 720.51l-35.355-35.355 35.355-35.356 35.355 35.356z"/><path fill="#080D32" d="M1678.014 682.326l-35.356-35.355 35.356-35.355 35.355 35.355z"/><path fill="#041233" d="M1716.198 644.142l-35.356-35.355 35.356-35.355 35.355 35.355z"/><path fill="#03102E" d="M1754.381 605.959l-35.355-35.356 35.355-35.355 35.356 35.355z"/><path fill="#020E2B" d="M1792.565 567.775l-35.355-35.355 35.355-35.356 35.355 35.356zm38.184-38.184l-35.355-35.355 35.355-35.355 35.355 35.355z"/><path fill="#051636" d="M1678.014 758.694l-35.356-35.356 35.356-35.355 35.355 35.355z"/><path fill="#071131" d="M1716.198 720.51l-35.356-35.355 35.356-35.356 35.355 35.356z"/><path fill="#08103A" d="M1754.381 682.326l-35.355-35.355 35.355-35.355 35.356 35.355z"/><path fill="#03102E" d="M1792.565 644.142l-35.355-35.355 35.355-35.355 35.355 35.355z"/><path fill="#050A27" d="M1830.749 605.959l-35.355-35.356 35.355-35.355 35.355 35.355z"/><path fill="#010C28" d="M1868.933 567.775l-35.356-35.355 35.356-35.356 35.355 35.356z"/><path fill="#071131" d="M1754.381 758.694l-35.355-35.356 35.355-35.355 35.356 35.355z"/><path fill="#08103A" d="M1792.565 720.51l-35.355-35.355 35.355-35.356 35.355 35.356z"/><path fill="#010C28" d="M1830.749 682.326l-35.355-35.355 35.355-35.355 35.355 35.355z"/><path fill="#020E2B" d="M1868.933 644.142l-35.356-35.355 35.356-35.355 35.355 35.355zm38.183-38.183l-35.355-35.356 35.355-35.355 35.356 35.355z"/><path fill="#061F71" d="M1257.992 720.51l-35.355-35.355 35.355-35.356 35.356 35.356z"/><path fill="#011E5E" d="M1296.176 682.326l-35.355-35.355 35.355-35.355 35.355 35.355z"/><path fill="#0A207C" d="M1219.809 758.694l-35.356-35.356 35.356-35.355 35.355 35.355z"/><path fill="#061556" d="M1334.36 644.142l-35.355-35.355 35.355-35.355 35.355 35.355z"/><path fill="#0A1850" d="M1372.544 605.959l-35.356-35.356 35.356-35.355 35.355 35.355z"/><path fill="#041840" d="M1410.727 567.775l-35.355-35.355 35.355-35.356 35.356 35.356z"/><path fill="#071A3F" d="M1448.911 529.591l-35.355-35.355 35.355-35.355 35.356 35.355z"/><path fill="#0B1439" d="M1487.095 491.407l-35.355-35.355 35.355-35.355 35.355 35.355z"/><path fill="#041029" d="M1525.279 453.224l-35.356-35.356 35.356-35.355 35.355 35.355z"/><path fill="#02102C" d="M1563.462 415.04l-35.355-35.355 35.355-35.356 35.356 35.356z"/><path fill="#020E2B" d="M1601.646 376.856l-35.355-35.355 35.355-35.356 35.356 35.356zm38.184-38.184l-35.355-35.355 35.355-35.355 35.355 35.355z"/><path fill="#010C28" d="M1678.014 300.489l-35.356-35.356 35.356-35.355 35.355 35.355z"/><path fill="#021B73" d="M1296.176 758.694l-35.355-35.356 35.355-35.355 35.355 35.355z"/><path fill="#031563" d="M1334.36 720.51l-35.355-35.355 35.355-35.356 35.355 35.356z"/><path fill="#0B1957" d="M1372.544 682.326l-35.356-35.355 35.356-35.355 35.355 35.355z"/><path fill="#071851" d="M1410.727 644.142l-35.355-35.355 35.355-35.355 35.356 35.355z"/><path fill="#041840" d="M1448.911 605.959l-35.355-35.356 35.355-35.355 35.356 35.355z"/><path fill="#0B1747" d="M1487.095 567.775l-35.355-35.355 35.355-35.356 35.355 35.356z"/><path fill="#061235" d="M1525.279 529.591l-35.356-35.355 35.356-35.355 35.355 35.355z"/><path fill="#06102D" d="M1563.462 491.407l-35.355-35.355 35.355-35.355 35.356 35.355z"/><path fill="#060F26" d="M1601.646 453.224l-35.355-35.356 35.355-35.355 35.356 35.355z"/><path fill="#020E2B" d="M1639.83 415.04l-35.355-35.355 35.355-35.356 35.355 35.356z"/><path fill="#010C28" d="M1678.014 376.856l-35.356-35.355 35.356-35.356 35.355 35.356zm38.184-38.184l-35.356-35.355 35.356-35.355 35.355 35.355z"/><path fill="#06112B" d="M1830.749 758.694l-35.355-35.356 35.355-35.355 35.355 35.355z"/><path fill="#07112B" d="M1868.933 720.51l-35.356-35.355 35.356-35.356 35.355 35.356zm38.183-38.184l-35.355-35.355 35.355-35.355 35.356 35.355z"/><path fill="#020E2B" d="M1945.3 644.142l-35.355-35.355 35.355-35.355 35.355 35.355z"/><path fill="#010C28" d="M1983.484 605.959l-35.355-35.356 35.355-35.355 35.355 35.355z"/><path fill="#07112B" d="M1907.116 758.694l-35.355-35.356 35.355-35.355 35.356 35.355z"/><path fill="#020E2B" d="M1945.3 720.51l-35.355-35.355 35.355-35.356 35.355 35.356zm38.184-38.184l-35.355-35.355 35.355-35.355 35.355 35.355z"/><path fill="#010C28" d="M2021.668 644.142l-35.356-35.355 35.356-35.355 35.355 35.355zm38.183-38.183l-35.355-35.356 35.355-35.355 35.356 35.355z"/><path fill="#020E2B" d="M1983.484 758.694l-35.355-35.356 35.355-35.355 35.355 35.355z"/><path fill="#010C28" d="M2021.668 720.51l-35.356-35.355 35.356-35.356 35.355 35.356zm38.183-38.184l-35.355-35.355 35.355-35.355 35.356 35.355zm38.184-38.184l-35.355-35.355 35.355-35.355 35.356 35.355zm38.184-38.183l-35.355-35.356 35.355-35.355 35.355 35.355zm-76.368 152.735l-35.355-35.356 35.355-35.355 35.356 35.355zm38.184-38.184l-35.355-35.355 35.355-35.356 35.356 35.356zm38.184-38.184l-35.355-35.355 35.355-35.355 35.355 35.355zm38.184-38.184l-35.356-35.355 35.356-35.355 35.355 35.355zm-38.184 114.552l-35.355-35.356 35.355-35.355 35.355 35.355zm38.184-38.184l-35.356-35.355 35.356-35.356 35.355 35.356zm38.184-38.184l-35.356-35.355 35.356-35.355 35.355 35.355zm0 76.368l-35.356-35.356 35.356-35.355 35.355 35.355zm38.183-38.184l-35.355-35.355 35.355-35.356 35.356 35.356zm38.184 38.184l-35.355-35.356 35.355-35.355 35.355 35.355z"/></g></svg>