<svg width="62" height="62" viewBox="0 0 62 62" xmlns="http://www.w3.org/2000/svg" xmlns:xlink="http://www.w3.org/1999/xlink"><title>Group</title><defs><ellipse id="a" cx="30" cy="30" rx="30" ry="30"/><filter x="-50%" y="-50%" width="200%" height="200%" filterUnits="objectBoundingBox" id="b"><feMorphology radius="1" in="SourceAlpha" result="shadowSpreadInner1"/><feGaussianBlur stdDeviation="4" in="shadowSpreadInner1" result="shadowBlurInner1"/><feOffset in="shadowBlurInner1" result="shadowOffsetInner1"/><feComposite in="shadowOffsetInner1" in2="SourceAlpha" operator="arithmetic" k2="-1" k3="1" result="shadowInnerInner1"/><feColorMatrix values="0 0 0 0 0.22745098 0 0 0 0 0.878431373 0 0 0 0 1 0 0 0 1 0" in="shadowInnerInner1"/></filter><filter x="-50%" y="-50%" width="200%" height="200%" filterUnits="objectBoundingBox" id="c"><feGaussianBlur stdDeviation="2.37" in="SourceGraphic"/></filter></defs><g fill="none" fill-rule="evenodd"><g transform="translate(1 1)"><use fill="#DC2288" xlink:href="#a"/><use fill="#000" filter="url(#b)" xlink:href="#a"/><use stroke="#4FE5FF" stroke-width="2" stroke-linecap="round" stroke-linejoin="round" xlink:href="#a"/></g><path d="M16.443 12.356l23.052.073v6.825L29.399 20.88l.895 3.224 7.439 1.547-2.014 7.376-6.473.268s-1.13 4.85-.04 4.85c1.088 0 11.64 1.112 11.64 1.112v8.304s-23.051.806-23.051 0c0-.805-1.352-35.205-1.352-35.205z" fill="#6B32A3" opacity=".312" filter="url(#c)" transform="translate(1 1)"/><path fill="#FFF" d="M21.684 46H39.32v-2.641H24.623V32.24h11.375v-2.641H24.623V18.693h13.93v-2.641h-16.87z"/></g></svg>