<svg width="62" height="62" viewBox="0 0 62 62" xmlns="http://www.w3.org/2000/svg" xmlns:xlink="http://www.w3.org/1999/xlink"><title>Group 5</title><defs><circle id="a" cx="30" cy="30" r="30"/><filter x="-50%" y="-50%" width="200%" height="200%" filterUnits="objectBoundingBox" id="b"><feMorphology radius="1" in="SourceAlpha" result="shadowSpreadInner1"/><feGaussianBlur stdDeviation="4" in="shadowSpreadInner1" result="shadowBlurInner1"/><feOffset in="shadowBlurInner1" result="shadowOffsetInner1"/><feComposite in="shadowOffsetInner1" in2="SourceAlpha" operator="arithmetic" k2="-1" k3="1" result="shadowInnerInner1"/><feColorMatrix values="0 0 0 0 0.22745098 0 0 0 0 0.878431373 0 0 0 0 1 0 0 0 1 0" in="shadowInnerInner1"/></filter><filter x="-50%" y="-50%" width="200%" height="200%" filterUnits="objectBoundingBox" id="c"><feGaussianBlur stdDeviation="2.37" in="SourceGraphic"/></filter></defs><g fill="none" fill-rule="evenodd"><g transform="translate(1 1)"><use fill="#DC2288" xlink:href="#a"/><use fill="#000" filter="url(#b)" xlink:href="#a"/><use stroke="#4FE5FF" stroke-width="2" stroke-linecap="round" stroke-linejoin="round" xlink:href="#a"/></g><path d="M7.428 12.703l8.837.835s4.429 13.992 4.429 12.801c0-1.19 3.715-13.62 3.715-13.628 0-.008 9.755.725 9.755.776 0 .051 3.738 10.137 3.738 10.137l4.293-10.427 8.214.56-8.364 33.804s-9.42-.21-10.412-1.525c-.992-1.314-2.226-8.763-2.226-8.763l-4.351 9.636-9.16.48-8.468-34.686z" fill="#6B32A3" opacity=".312" filter="url(#c)" transform="translate(1 1)"/><path d="M30.182 20.44s.47 2.556.98 4.473L36.871 46h3.536l7.966-29.948h-3.067l-6.007 23.26c-.383 1.533-.682 3.195-.682 3.195h-.085c-.042 0-.255-1.662-.681-3.195l-6.305-23.26h-2.812l-6.305 23.26c-.426 1.533-.639 3.195-.681 3.195h-.086s-.298-1.662-.681-3.195l-5.794-23.26H12.12L19.873 46h3.536l5.708-21.087c.512-1.917.98-4.473.98-4.473h.085z" fill="#FFF"/></g></svg>