<svg width="31" height="20" viewBox="0 0 31 20" xmlns="http://www.w3.org/2000/svg"><title>GooglePlus</title><path d="M27.588 8.218V4.752h-2.437v3.466h-3.51v2.475h3.51v3.564h2.437v-3.564H31V8.218h-3.412zM9.846 8.02v3.96s3.783-.005 5.323-.005c-.834 2.567-2.131 3.966-5.323 3.966-3.23 0-5.752-2.66-5.752-5.941 0-3.28 2.522-5.94 5.752-5.94 1.708 0 2.81.61 3.823 1.459.81-.823.742-.94 2.802-2.916A9.727 9.727 0 0 0 9.846 0C4.408 0 0 4.477 0 10s4.408 10 9.846 10c8.128 0 10.114-7.188 9.456-11.98H9.846z" fill="#FFF" fill-rule="evenodd"/></svg>