<svg width="62" height="62" viewBox="0 0 62 62" xmlns="http://www.w3.org/2000/svg" xmlns:xlink="http://www.w3.org/1999/xlink"><title>Group 3</title><defs><ellipse id="a" cx="30" cy="30" rx="30" ry="30"/><filter x="-50%" y="-50%" width="200%" height="200%" filterUnits="objectBoundingBox" id="b"><feMorphology radius="1" in="SourceAlpha" result="shadowSpreadInner1"/><feGaussianBlur stdDeviation="4" in="shadowSpreadInner1" result="shadowBlurInner1"/><feOffset in="shadowBlurInner1" result="shadowOffsetInner1"/><feComposite in="shadowOffsetInner1" in2="SourceAlpha" operator="arithmetic" k2="-1" k3="1" result="shadowInnerInner1"/><feColorMatrix values="0 0 0 0 0.22745098 0 0 0 0 0.878431373 0 0 0 0 1 0 0 0 1 0" in="shadowInnerInner1"/></filter><filter x="-50%" y="-50%" width="200%" height="200%" filterUnits="objectBoundingBox" id="c"><feGaussianBlur stdDeviation="2.37" in="SourceGraphic"/></filter></defs><g fill="none" fill-rule="evenodd"><g transform="translate(1 1)"><use fill="#DC2288" xlink:href="#a"/><use fill="#000" filter="url(#b)" xlink:href="#a"/><use stroke="#4FE5FF" stroke-width="2" stroke-linecap="round" stroke-linejoin="round" xlink:href="#a"/></g><path d="M27.284 11.87c6.38-1.186 13.534-.835 18.584 6.644 5.05 7.478 2.727 17.882 0 22.115-2.726 4.233-8.524 9.534-18.584 7.966-10.06-1.569-17.495-7.43-16.18-18.728 1.315-11.298 6.144-16.131 16.18-17.997zm6.292 9.01c-4.203-1.549-10.696-.916-12.14 5.46-1.444 6.374-2.529 11.916 5.329 12.917 7.857 1.002 9.698-.632 11.287-6.23 1.59-5.598.703-10.24-4.476-12.147z" fill="#6B32A3" opacity=".312" filter="url(#c)" transform="translate(1 1)"/><path d="M15.822 30.834c0 8.776 6.773 15.677 15.25 15.677 8.478 0 15.252-6.901 15.252-15.677 0-8.605-6.774-15.293-15.251-15.293-8.478 0-15.251 6.688-15.251 15.293zm3.067 0c0-7.157 5.41-12.567 12.184-12.567 6.73 0 12.183 5.41 12.183 12.567 0 7.327-5.452 12.95-12.183 12.95-6.774 0-12.184-5.623-12.184-12.95z" fill="#FFF"/></g></svg>