<svg width="2513" height="836" viewBox="0 0 2513 836" xmlns="http://www.w3.org/2000/svg"><title>pattern</title><g fill="none" fill-rule="evenodd"><path fill="#010B26" d="M2210.3 688.577l35.355 35.356-35.355 35.355-35.355-35.355z"/><path fill="#020C27" d="M2172.116 726.761l35.356 35.355-35.356 35.356-35.355-35.356z"/><path fill="#030B25" d="M2133.933 764.945l35.355 35.355-35.355 35.355-35.356-35.355z"/><path fill="#010C28" d="M2324.851 574.026l35.356 35.355-35.356 35.356-35.355-35.356zm38.184-38.184l35.356 35.356-35.356 35.355-35.355-35.355z"/><path fill="#020B24" d="M2401.219 574.026l35.355 35.355-35.355 35.356-35.355-35.356zm76.368 0l35.355 35.355-35.355 35.356-35.356-35.356z"/><path fill="#010B25" d="M2439.403 535.842l35.355 35.356-35.355 35.355-35.356-35.355z"/><path fill="#010C28" d="M2248.484 650.394l35.355 35.355-35.355 35.355-35.355-35.355zm38.184-38.184l35.355 35.355-35.355 35.355-35.356-35.355z"/><path fill="#030C27" d="M2286.668 688.577l35.355 35.356-35.355 35.355-35.356-35.355z"/><path fill="#030B25" d="M2324.851 650.394l35.356 35.355-35.356 35.355-35.355-35.355z"/><path fill="#030C27" d="M2363.035 612.21l35.356 35.355-35.356 35.355-35.355-35.355z"/><path fill="#030B25" d="M2401.219 650.394l35.355 35.355-35.355 35.355-35.355-35.355zm76.368 0l35.355 35.355-35.355 35.355-35.356-35.355z"/><path fill="#020B24" d="M2439.403 612.21l35.355 35.355-35.355 35.355-35.356-35.355z"/><path fill="#061037" d="M2286.668 154.005l35.355 35.355-35.355 35.355-35.356-35.355z"/><path fill="#011338" d="M2248.484 192.188l35.355 35.356-35.355 35.355-35.355-35.355z"/><path fill="#041035" d="M2324.851 115.82l35.356 35.356-35.356 35.355-35.355-35.355z"/><path fill="#030E2E" d="M2363.035 77.637l35.356 35.355-35.356 35.356-35.355-35.356z"/><path fill="#060E2F" d="M2401.219 115.82l35.355 35.356-35.355 35.355-35.355-35.355z"/><path fill="#030C27" d="M2477.587 115.82l35.355 35.356-35.355 35.355-35.356-35.355z"/><path fill="#050C2A" d="M2439.403 77.637l35.355 35.355-35.355 35.356-35.356-35.356z"/><path fill="#001136" d="M2210.3 230.372l35.355 35.355-35.355 35.356-35.355-35.356z"/><path fill="#0A1236" d="M2172.116 268.556l35.356 35.355-35.356 35.356-35.355-35.356z"/><path fill="#010C28" d="M1752.095 688.577l35.355 35.356-35.355 35.355-35.355-35.355z"/><path fill="#030C27" d="M1713.911 726.761l35.356 35.355-35.356 35.356-35.355-35.356z"/><path fill="#010B25" d="M1675.727 764.945l35.356 35.355-35.356 35.355-35.355-35.355z"/><path fill="#040B2B" d="M1866.646 574.026l35.356 35.355-35.356 35.356-35.355-35.356z"/><path fill="#050D33" d="M1981.198 459.475l35.355 35.355-35.355 35.355-35.356-35.355z"/><path fill="#08103A" d="M2095.749 344.923l35.355 35.356-35.355 35.355-35.355-35.355z"/><path fill="#020D2B" d="M1790.279 650.394l35.355 35.355-35.355 35.355-35.356-35.355z"/><path fill="#040B2B" d="M1828.462 612.21l35.356 35.355-35.356 35.355-35.355-35.355z"/><path fill="#050E34" d="M1904.83 535.842l35.355 35.356-35.355 35.355-35.355-35.355z"/><path fill="#070F31" d="M1943.014 497.658l35.355 35.356-35.355 35.355-35.356-35.355z"/><path fill="#070E34" d="M2019.381 421.29l35.356 35.356-35.356 35.356-35.355-35.356z"/><path fill="#010E39" d="M2057.565 383.107l35.355 35.355-35.355 35.356-35.355-35.356z"/><path fill="#071037" d="M2133.933 306.74l35.355 35.355-35.355 35.355-35.356-35.355z"/><path fill="#050C2C" d="M2324.851 344.923l35.356 35.356-35.356 35.355-35.355-35.355zm38.184-38.183l35.356 35.355-35.356 35.355-35.355-35.355z"/><path fill="#030B29" d="M2401.219 344.923l35.355 35.356-35.355 35.355-35.355-35.355z"/><path fill="#010B25" d="M2477.587 344.923l35.355 35.356-35.355 35.355-35.356-35.355z"/><path fill="#040A27" d="M2439.403 306.74l35.355 35.355-35.355 35.355-35.356-35.355z"/><path fill="#040B2C" d="M2286.668 383.107l35.355 35.355-35.355 35.356-35.356-35.356z"/><path fill="#010C28" d="M1981.198 688.577l35.355 35.356-35.355 35.355-35.356-35.355z"/><path fill="#030C27" d="M1943.014 726.761l35.355 35.355-35.355 35.356-35.356-35.356z"/><path fill="#010B25" d="M1904.83 764.945l35.355 35.355-35.355 35.355-35.355-35.355z"/><path fill="#040B2B" d="M2095.749 574.026l35.355 35.355-35.355 35.356-35.355-35.356z"/><path fill="#040B2D" d="M2210.3 459.475l35.355 35.355-35.355 35.355-35.355-35.355z"/><path fill="#030B2B" d="M2019.381 650.394l35.356 35.355-35.356 35.355-35.355-35.355z"/><path fill="#040B2B" d="M2057.565 612.21l35.355 35.355-35.355 35.355-35.355-35.355zm76.368-76.368l35.355 35.356-35.355 35.355-35.356-35.355zm38.183-38.184l35.356 35.356-35.356 35.355-35.355-35.355z"/><path fill="#040B2D" d="M2248.484 421.29l35.355 35.356-35.355 35.356-35.355-35.356z"/><path fill="#001043" d="M2248.484 115.82l35.355 35.356-35.355 35.355-35.355-35.355z"/><path fill="#031038" d="M2324.851 39.453l35.356 35.356-35.356 35.355-35.355-35.355z"/><path fill="#030E2E" d="M2363.035 1.27l35.356 35.355-35.356 35.355-35.355-35.355z"/><path fill="#070E2F" d="M2401.219 39.453l35.355 35.356-35.355 35.355-35.355-35.355z"/><path fill="#030C27" d="M2477.587 39.453l35.355 35.356-35.355 35.355-35.356-35.355z"/><path fill="#050C2A" d="M2439.403 1.27l35.355 35.355-35.355 35.355-35.356-35.355z"/><path fill="#09133B" d="M2210.3 154.005l35.355 35.355-35.355 35.355-35.355-35.355z"/><path fill="#08123B" d="M2286.668 77.637l35.355 35.355-35.355 35.356-35.356-35.356z"/><path fill="#0A143E" d="M2172.116 192.188l35.356 35.356-35.356 35.355-35.355-35.355z"/><path fill="#01143D" d="M2133.933 230.372l35.355 35.355-35.355 35.356-35.356-35.356z"/><path fill="#010C2B" d="M1713.911 650.394l35.356 35.355-35.356 35.355-35.355-35.355z"/><path fill="#040D33" d="M1828.462 535.842l35.356 35.356-35.356 35.355-35.355-35.355z"/><path fill="#010E38" d="M1943.014 421.29l35.355 35.356-35.355 35.356-35.356-35.356z"/><path fill="#09113C" d="M2057.565 306.74l35.355 35.355-35.355 35.355-35.355-35.355z"/><path fill="#000B28" d="M1675.727 688.577l35.356 35.356-35.356 35.355-35.355-35.355z"/><path fill="#030C27" d="M1637.544 726.761l35.355 35.355-35.355 35.356-35.356-35.356z"/><path fill="#010B25" d="M1599.36 764.945l35.355 35.355-35.355 35.355-35.355-35.355z"/><path fill="#040B2B" d="M1752.095 612.21l35.355 35.355-35.355 35.355-35.355-35.355z"/><path fill="#060E2F" d="M1790.279 574.026l35.355 35.355-35.355 35.356-35.356-35.356z"/><path fill="#071035" d="M1866.646 497.658l35.356 35.356-35.356 35.355-35.355-35.355z"/><path fill="#050F38" d="M1904.83 459.475l35.355 35.355-35.355 35.355-35.355-35.355z"/><path fill="#031139" d="M1981.198 383.107l35.355 35.355-35.355 35.356-35.356-35.356z"/><path fill="#050F3B" d="M2019.381 344.923l35.356 35.356-35.356 35.355-35.355-35.355z"/><path fill="#061342" d="M2095.749 268.556l35.355 35.355-35.355 35.356-35.355-35.356z"/><path fill="#050D31" d="M2324.851 192.188l35.356 35.356-35.356 35.355-35.355-35.355z"/><path fill="#040B2F" d="M2363.035 154.005l35.356 35.355-35.356 35.355-35.355-35.355z"/><path fill="#050B2A" d="M2401.219 192.188l35.355 35.356-35.355 35.355-35.355-35.355z"/><path fill="#010C28" d="M2477.587 192.188l35.355 35.356-35.355 35.355-35.356-35.355zm-38.184-38.183l35.355 35.355-35.355 35.355-35.356-35.355z"/><path fill="#050E36" d="M2286.668 230.372l35.355 35.355-35.355 35.356-35.356-35.356z"/><path fill="#001032" d="M2248.484 268.556l35.355 35.355-35.355 35.356-35.355-35.356zM2210.3 306.74l35.355 35.355-35.355 35.355-35.355-35.355z"/><path fill="#040B2B" d="M1904.83 612.21l35.355 35.355-35.355 35.355-35.355-35.355z"/><path fill="#030C31" d="M2019.381 497.658l35.356 35.356-35.356 35.355-35.355-35.355z"/><path fill="#030C36" d="M2133.933 383.107l35.355 35.355-35.355 35.356-35.356-35.356z"/><path fill="#010C28" d="M1828.462 688.577l35.356 35.356-35.356 35.355-35.355-35.355z"/><path fill="#030C27" d="M1790.279 726.761l35.355 35.355-35.355 35.356-35.356-35.356z"/><path fill="#010B25" d="M1752.095 764.945l35.355 35.355-35.355 35.355-35.355-35.355z"/><path fill="#060D27" d="M1866.646 650.394l35.356 35.355-35.356 35.355-35.355-35.355z"/><path fill="#020A2B" d="M1943.014 574.026l35.355 35.355-35.355 35.356-35.356-35.356z"/><path fill="#030B2C" d="M1981.198 535.842l35.355 35.356-35.355 35.355-35.356-35.355z"/><path fill="#040D33" d="M2057.565 459.475l35.355 35.355-35.355 35.355-35.355-35.355z"/><path fill="#040D34" d="M2095.749 421.29l35.355 35.356-35.355 35.356-35.355-35.356z"/><path fill="#070F31" d="M2172.116 344.923l35.356 35.356-35.356 35.355-35.355-35.355z"/><path fill="#040C2F" d="M2324.851 268.556l35.356 35.355-35.356 35.356-35.355-35.356z"/><path fill="#040C2C" d="M2363.035 230.372l35.356 35.355-35.356 35.356-35.355-35.356z"/><path fill="#030B29" d="M2401.219 268.556l35.355 35.355-35.355 35.356-35.355-35.356z"/><path fill="#010B25" d="M2477.587 268.556l35.355 35.355-35.355 35.356-35.356-35.356z"/><path fill="#010C28" d="M2439.403 230.372l35.355 35.355-35.355 35.356-35.356-35.356z"/><path fill="#060E2F" d="M2286.668 306.74l35.355 35.355-35.355 35.355-35.356-35.355z"/><path fill="#060E30" d="M2248.484 344.923l35.355 35.356-35.355 35.355-35.355-35.355z"/><path fill="#050C2C" d="M1943.014 650.394l35.355 35.355-35.355 35.355-35.356-35.355z"/><path fill="#000C2E" d="M2057.565 535.842l35.355 35.356-35.355 35.355-35.355-35.355z"/><path fill="#050C32" d="M2172.116 421.29l35.356 35.356-35.356 35.356-35.355-35.356z"/><path fill="#010C28" d="M1904.83 688.577l35.355 35.356-35.355 35.355-35.355-35.355z"/><path fill="#030C27" d="M1866.646 726.761l35.356 35.355-35.356 35.356-35.355-35.356z"/><path fill="#010B25" d="M1828.462 764.945l35.356 35.355-35.356 35.355-35.355-35.355z"/><path fill="#040B2B" d="M1981.198 612.21l35.355 35.355-35.355 35.355-35.356-35.355zm38.183-38.184l35.356 35.355-35.356 35.356-35.355-35.356zm76.368-76.368l35.355 35.356-35.355 35.355-35.355-35.355z"/><path fill="#040B2D" d="M2133.933 459.475l35.355 35.355-35.355 35.355-35.356-35.355z"/><path fill="#050C2E" d="M2210.3 383.107l35.355 35.355-35.355 35.356-35.355-35.356z"/><path fill="#050C2C" d="M2324.851 421.29l35.356 35.356-35.356 35.356-35.355-35.356zm38.184-38.183l35.356 35.355-35.356 35.356-35.355-35.356z"/><path fill="#030C27" d="M2401.219 421.29l35.355 35.356-35.355 35.356-35.355-35.356z"/><path fill="#010B25" d="M2477.587 421.29l35.355 35.356-35.355 35.356-35.356-35.356z"/><path fill="#040A27" d="M2439.403 383.107l35.355 35.355-35.355 35.356-35.356-35.356z"/><path fill="#040B2B" d="M2133.933 612.21l35.355 35.355-35.355 35.355-35.356-35.355z"/><path fill="#040B2D" d="M2248.484 497.658l35.355 35.356-35.355 35.355-35.355-35.355z"/><path fill="#010C28" d="M2057.565 688.577l35.355 35.356-35.355 35.355-35.355-35.355z"/><path fill="#030C27" d="M2019.381 726.761l35.356 35.355-35.356 35.356-35.355-35.356z"/><path fill="#010B25" d="M1981.198 764.945l35.355 35.355-35.355 35.355-35.356-35.355z"/><path fill="#010C28" d="M2095.749 650.394l35.355 35.355-35.355 35.355-35.355-35.355z"/><path fill="#040B2B" d="M2172.116 574.026l35.356 35.355-35.356 35.356-35.355-35.356zm38.184-38.184l35.355 35.356-35.355 35.355-35.355-35.355z"/><path fill="#050C2C" d="M2286.668 459.475l35.355 35.355-35.355 35.355-35.356-35.355z"/><path fill="#010C28" d="M2172.116 650.394l35.356 35.355-35.356 35.355-35.355-35.355zm114.552-114.552l35.355 35.356-35.355 35.355-35.356-35.355zm-152.735 152.735l35.355 35.356-35.355 35.355-35.356-35.355z"/><path fill="#030C27" d="M2095.749 726.761l35.355 35.355-35.355 35.356-35.355-35.356z"/><path fill="#000B25" d="M2057.565 764.945l35.355 35.355-35.355 35.355-35.355-35.355z"/><path fill="#010C28" d="M2210.3 612.21l35.355 35.355-35.355 35.355-35.355-35.355z"/><path fill="#040B2B" d="M2248.484 574.026l35.355 35.355-35.355 35.356-35.355-35.356z"/><path fill="#010C28" d="M2324.851 497.658l35.356 35.356-35.356 35.355-35.355-35.355zm38.184-38.183l35.356 35.355-35.356 35.355-35.355-35.355z"/><path fill="#030C27" d="M2401.219 497.658l35.355 35.356-35.355 35.355-35.355-35.355z"/><path fill="#010B25" d="M2477.587 497.658l35.355 35.356-35.355 35.355-35.356-35.355z"/><path fill="#030C27" d="M2439.403 459.475l35.355 35.355-35.355 35.355-35.356-35.355z"/><path fill="#031536" d="M2324.851-36.914l35.356 35.355-35.356 35.355-35.355-35.355z"/><path fill="#04102E" d="M2401.219-36.914l35.355 35.355-35.355 35.355-35.355-35.355z"/><path fill="#010B25" d="M2477.587-36.914l35.355 35.355-35.355 35.355-35.356-35.355z"/><path fill="#021345" d="M2210.3 77.637l35.355 35.355-35.355 35.356-35.355-35.356z"/><path fill="#001043" d="M2286.668 1.27l35.355 35.355-35.355 35.355-35.356-35.355z"/><path fill="#0C1643" d="M2172.116 115.82l35.356 35.356-35.356 35.355-35.355-35.355z"/><path fill="#00173E" d="M2248.484 39.453l35.355 35.356-35.355 35.355-35.355-35.355z"/><path fill="#001645" d="M2133.933 154.005l35.355 35.355-35.355 35.355-35.356-35.355z"/><path fill="#03114B" d="M2095.749 192.188l35.355 35.356-35.355 35.355-35.355-35.355z"/><path fill="#060D2E" d="M1675.727 612.21l35.356 35.355-35.356 35.355-35.355-35.355z"/><path fill="#061038" d="M1790.279 497.658l35.355 35.356-35.355 35.355-35.356-35.355z"/><path fill="#06123D" d="M1904.83 383.107l35.355 35.355-35.355 35.356-35.355-35.356z"/><path fill="#05134B" d="M2019.381 268.556l35.356 35.355-35.356 35.356-35.355-35.356z"/><path fill="#010D2C" d="M1637.544 650.394l35.355 35.355-35.355 35.355-35.356-35.355z"/><path fill="#060E2F" d="M1713.911 574.026l35.356 35.355-35.356 35.356-35.355-35.356z"/><path fill="#050F39" d="M1752.095 535.842l35.355 35.356-35.355 35.355-35.355-35.355z"/><path fill="#071038" d="M1828.462 459.475l35.356 35.355-35.356 35.355-35.355-35.355z"/><path fill="#07133D" d="M1866.646 421.29l35.356 35.356-35.356 35.356-35.355-35.356z"/><path fill="#051241" d="M1943.014 344.923l35.355 35.356-35.355 35.355-35.356-35.355z"/><path fill="#02153D" d="M1981.198 306.74l35.355 35.355-35.355 35.355-35.356-35.355z"/><path fill="#031743" d="M2057.565 230.372l35.355 35.355-35.355 35.356-35.355-35.356z"/><path fill="#010C29" d="M1599.36 688.577l35.355 35.356-35.355 35.355-35.355-35.355z"/><path fill="#030C27" d="M1561.176 726.761l35.355 35.355-35.355 35.356-35.355-35.356z"/><path fill="#010B25" d="M1522.992 764.945l35.356 35.355-35.356 35.355-35.355-35.355z"/><path fill="#001749" d="M2172.116 39.453l35.356 35.356-35.356 35.355-35.355-35.355z"/><path fill="#011943" d="M2248.484-36.914l35.355 35.355-35.355 35.355-35.355-35.355z"/><path fill="#001C4A" d="M2133.933 77.637l35.355 35.355-35.355 35.356-35.356-35.356z"/><path fill="#041C47" d="M2210.3 1.27l35.355 35.355L2210.3 71.98l-35.355-35.355z"/><path fill="#031A4A" d="M2095.749 115.82l35.355 35.356-35.355 35.355-35.355-35.355z"/><path fill="#031A4B" d="M2057.565 154.005l35.355 35.355-35.355 35.355-35.355-35.355z"/><path fill="#060E34" d="M1637.544 574.026l35.355 35.355-35.355 35.356-35.356-35.356z"/><path fill="#04113E" d="M1752.095 459.475l35.355 35.355-35.355 35.355-35.355-35.355z"/><path fill="#081647" d="M1866.646 344.923l35.356 35.356-35.356 35.355-35.355-35.355z"/><path fill="#01194D" d="M1981.198 230.372l35.355 35.355-35.355 35.356-35.356-35.356z"/><path fill="#060D2C" d="M1599.36 612.21l35.355 35.355-35.355 35.355-35.355-35.355z"/><path fill="#081137" d="M1675.727 535.842l35.356 35.356-35.356 35.355-35.355-35.355z"/><path fill="#050F3A" d="M1713.911 497.658l35.356 35.356-35.356 35.355-35.355-35.355z"/><path fill="#0A1340" d="M1790.279 421.29l35.355 35.356-35.355 35.356-35.356-35.356z"/><path fill="#081647" d="M1828.462 383.107l35.356 35.355-35.356 35.356-35.355-35.356z"/><path fill="#04124E" d="M1904.83 306.74l35.355 35.355-35.355 35.355-35.355-35.355z"/><path fill="#04144B" d="M1943.014 268.556l35.355 35.355-35.355 35.356-35.356-35.356z"/><path fill="#011C54" d="M2019.381 192.188l35.356 35.356-35.356 35.355-35.355-35.355z"/><path fill="#060D2D" d="M1561.176 650.394l35.355 35.355-35.355 35.355-35.355-35.355z"/><path fill="#010C2A" d="M1522.992 688.577l35.356 35.356-35.356 35.355-35.355-35.355z"/><path fill="#030C27" d="M1484.809 726.761l35.355 35.355-35.355 35.356-35.356-35.356z"/><path fill="#010B25" d="M1446.625 764.945l35.355 35.355-35.355 35.355-35.356-35.355z"/><path fill="#001E50" d="M2133.933 1.27l35.355 35.355-35.355 35.355-35.356-35.355z"/><path fill="#02185A" d="M2095.749 39.453l35.355 35.356-35.355 35.355-35.355-35.355z"/><path fill="#022050" d="M2172.116-36.914l35.356 35.355-35.356 35.355-35.355-35.355z"/><path fill="#041B5E" d="M2057.565 77.637l35.355 35.355-35.355 35.356-35.355-35.356z"/><path fill="#021858" d="M2019.381 115.82l35.356 35.356-35.356 35.355-35.355-35.355z"/><path fill="#050E36" d="M1599.36 535.842l35.355 35.356-35.355 35.355-35.355-35.355z"/><path fill="#081248" d="M1713.911 421.29l35.356 35.356-35.356 35.356-35.355-35.356z"/><path fill="#051551" d="M1828.462 306.74l35.356 35.355-35.356 35.355-35.355-35.355z"/><path fill="#021756" d="M1943.014 192.188l35.355 35.356-35.355 35.355-35.356-35.355z"/><path fill="#030C32" d="M1561.176 574.026l35.355 35.355-35.355 35.356-35.355-35.356z"/><path fill="#08123C" d="M1637.544 497.658l35.355 35.356-35.355 35.355-35.356-35.355z"/><path fill="#0A1241" d="M1675.727 459.475l35.356 35.355-35.356 35.355-35.355-35.355z"/><path fill="#0A144A" d="M1752.095 383.107l35.355 35.355-35.355 35.356-35.355-35.356z"/><path fill="#06154B" d="M1790.279 344.923l35.355 35.356-35.355 35.355-35.356-35.355z"/><path fill="#061555" d="M1866.646 268.556l35.356 35.355-35.356 35.356-35.355-35.356z"/><path fill="#001A54" d="M1904.83 230.372l35.355 35.355-35.355 35.356-35.355-35.356z"/><path fill="#021757" d="M1981.198 154.005l35.355 35.355-35.355 35.355-35.356-35.355z"/><path fill="#060D2C" d="M1522.992 612.21l35.356 35.355-35.356 35.355-35.355-35.355z"/><path fill="#030E2B" d="M1484.809 650.394l35.355 35.355-35.355 35.355-35.356-35.355z"/><path fill="#010D2A" d="M1446.625 688.577l35.355 35.356-35.355 35.355-35.356-35.355z"/><path fill="#010C28" d="M1408.441 726.761l35.355 35.355-35.355 35.356-35.355-35.356z"/><path fill="#010B25" d="M1370.257 764.945l35.356 35.355-35.356 35.355-35.355-35.355z"/><path fill="#052559" d="M2095.749-36.914l35.355 35.355-35.355 35.355-35.355-35.355z"/><path fill="#001863" d="M2057.565 1.27l35.355 35.355-35.355 35.355-35.355-35.355z"/><path fill="#00175C" d="M2019.381 39.453l35.356 35.356-35.356 35.355-35.355-35.355z"/><path fill="#011962" d="M1981.198 77.637l35.355 35.355-35.355 35.356-35.356-35.356z"/><path fill="#06103E" d="M1561.176 497.658l35.355 35.356-35.355 35.355-35.355-35.355z"/><path fill="#061645" d="M1675.727 383.107l35.356 35.355-35.356 35.356-35.355-35.356z"/><path fill="#0A1852" d="M1790.279 268.556l35.355 35.355-35.355 35.356-35.356-35.356z"/><path fill="#0A2062" d="M1904.83 154.005l35.355 35.355-35.355 35.355-35.355-35.355z"/><path fill="#050E35" d="M1522.992 535.842l35.356 35.356-35.356 35.355-35.355-35.355z"/><path fill="#081445" d="M1599.36 459.475l35.355 35.355-35.355 35.355-35.355-35.355z"/><path fill="#061447" d="M1637.544 421.29l35.355 35.356-35.355 35.356-35.356-35.356z"/><path fill="#061648" d="M1713.911 344.923l35.356 35.356-35.356 35.355-35.355-35.355z"/><path fill="#021254" d="M1752.095 306.74l35.355 35.355-35.355 35.355-35.355-35.355z"/><path fill="#061A58" d="M1828.462 230.372l35.356 35.355-35.356 35.356-35.355-35.356z"/><path fill="#04215F" d="M1866.646 192.188l35.356 35.356-35.356 35.355-35.355-35.355z"/><path fill="#00215A" d="M1943.014 115.82l35.355 35.356-35.355 35.355-35.356-35.355z"/><path fill="#050E31" d="M1484.809 574.026l35.355 35.355-35.355 35.356-35.356-35.356z"/><path fill="#050D31" d="M1446.625 612.21l35.355 35.355-35.355 35.355-35.356-35.355z"/><path fill="#030E2B" d="M1408.441 650.394l35.355 35.355-35.355 35.355-35.355-35.355z"/><path fill="#010C28" d="M1370.257 688.577l35.356 35.356-35.356 35.355-35.355-35.355zm-38.183 38.184l35.355 35.355-35.355 35.356-35.356-35.356z"/><path fill="#010B25" d="M1293.89 764.945l35.355 35.355-35.355 35.355-35.356-35.355z"/><path fill="#002383" d="M1943.014-36.914l35.355 35.355-35.355 35.355-35.356-35.355z"/><path fill="#002667" d="M1904.83 1.27l35.355 35.355-35.355 35.355-35.355-35.355z"/><path fill="#021342" d="M1484.809 421.29l35.355 35.356-35.355 35.356-35.356-35.356z"/><path fill="#0B1A4D" d="M1599.36 306.74l35.355 35.355-35.355 35.355-35.355-35.355z"/><path fill="#04215F" d="M1713.911 192.188l35.356 35.356-35.356 35.355-35.355-35.355z"/><path fill="#051F6B" d="M1828.462 77.637l35.356 35.355-35.356 35.356-35.355-35.356z"/><path fill="#05143B" d="M1446.625 459.475l35.355 35.355-35.355 35.355-35.356-35.355z"/><path fill="#051748" d="M1522.992 383.107l35.356 35.355-35.356 35.356-35.355-35.356z"/><path fill="#02164E" d="M1561.176 344.923l35.355 35.356-35.355 35.355-35.355-35.355z"/><path fill="#07175D" d="M1637.544 268.556l35.355 35.355-35.355 35.356-35.356-35.356z"/><path fill="#04215F" d="M1675.727 230.372l35.356 35.355-35.356 35.356-35.355-35.356z"/><path fill="#0B236A" d="M1752.095 154.005l35.355 35.355-35.355 35.355-35.355-35.355z"/><path fill="#021F75" d="M1790.279 115.82l35.355 35.356-35.355 35.355-35.356-35.355z"/><path fill="#031F74" d="M1866.646 39.453l35.356 35.356-35.356 35.355-35.355-35.355z"/><path fill="#071240" d="M1408.441 497.658l35.355 35.356-35.355 35.355-35.355-35.355z"/><path fill="#091134" d="M1370.257 535.842l35.356 35.356-35.356 35.355-35.355-35.355z"/><path fill="#040C2F" d="M1332.074 574.026l35.355 35.355-35.355 35.356-35.356-35.356z"/><path fill="#020E2D" d="M1293.89 612.21l35.355 35.355-35.355 35.355-35.356-35.355z"/><path fill="#01226D" d="M2019.381-36.914l35.356 35.355-35.356 35.355-35.355-35.355z"/><path fill="#021E6A" d="M1981.198 1.27l35.355 35.355-35.355 35.355-35.356-35.355z"/><path fill="#021C6B" d="M1943.014 39.453l35.355 35.356-35.355 35.355-35.356-35.355z"/><path fill="#061143" d="M1522.992 459.475l35.356 35.355-35.356 35.355-35.355-35.355z"/><path fill="#08194D" d="M1637.544 344.923l35.355 35.356-35.355 35.355-35.356-35.355z"/><path fill="#081D5C" d="M1752.095 230.372l35.355 35.355-35.355 35.356-35.355-35.356z"/><path fill="#021B65" d="M1866.646 115.82l35.356 35.356-35.356 35.355-35.355-35.355z"/><path fill="#051141" d="M1484.809 497.658l35.355 35.356-35.355 35.355-35.356-35.355z"/><path fill="#021643" d="M1561.176 421.29l35.355 35.356-35.355 35.356-35.355-35.356z"/><path fill="#04174B" d="M1599.36 383.107l35.355 35.355-35.355 35.356-35.355-35.356z"/><path fill="#091755" d="M1675.727 306.74l35.356 35.355-35.356 35.355-35.355-35.355z"/><path fill="#07175D" d="M1713.911 268.556l35.356 35.355-35.356 35.356-35.355-35.356z"/><path fill="#04215F" d="M1790.279 192.188l35.355 35.356-35.355 35.355-35.356-35.355zm38.183-38.183l35.356 35.355-35.356 35.355-35.355-35.355z"/><path fill="#031E6D" d="M1904.83 77.637l35.355 35.355-35.355 35.356-35.355-35.356z"/><path fill="#050F38" d="M1446.625 535.842l35.355 35.356-35.355 35.355-35.356-35.355z"/><path fill="#070F30" d="M1408.441 574.026l35.355 35.355-35.355 35.356-35.355-35.356z"/><path fill="#02102C" d="M1370.257 612.21l35.356 35.355-35.356 35.355-35.355-35.355z"/><path fill="#030E2B" d="M1332.074 650.394l35.355 35.355-35.355 35.355-35.356-35.355z"/><path fill="#010C28" d="M1293.89 688.577l35.355 35.356-35.355 35.355-35.356-35.355z"/><path fill="#000C2C" d="M1255.706 650.394l35.355 35.355-35.355 35.355-35.355-35.355z"/><path fill="#010C28" d="M1255.706 726.761l35.355 35.355-35.355 35.356-35.355-35.356zm-38.184-38.184l35.356 35.356-35.356 35.355-35.355-35.355z"/><path fill="#010B25" d="M1217.522 764.945l35.356 35.355-35.356 35.355-35.355-35.355z"/><path fill="#010C28" d="M1179.338 726.761l35.356 35.355-35.356 35.356-35.355-35.356z"/><path fill="#071A55" d="M1370.257 306.74l35.356 35.355-35.356 35.355-35.355-35.355z"/><path fill="#04215F" d="M1484.809 192.188l35.355 35.356-35.355 35.355-35.356-35.355z"/><path fill="#0A267A" d="M1599.36 77.637l35.355 35.355-35.355 35.356-35.355-35.356z"/><path fill="#042F79" d="M1713.911-36.914l35.356 35.355-35.356 35.355-35.355-35.355z"/><path fill="#0B194E" d="M1332.074 344.923l35.355 35.356-35.355 35.355-35.356-35.355z"/><path fill="#021761" d="M1408.441 268.556l35.355 35.355-35.355 35.356-35.355-35.356z"/><path fill="#0E1F64" d="M1446.625 230.372l35.355 35.355-35.355 35.356-35.356-35.356z"/><path fill="#0A236E" d="M1522.992 154.005l35.356 35.355-35.356 35.355-35.355-35.355z"/><path fill="#04237E" d="M1561.176 115.82l35.355 35.356-35.355 35.355-35.355-35.355z"/><path fill="#0C2B88" d="M1637.544 39.453l35.355 35.356-35.355 35.355-35.356-35.355z"/><path fill="#0D2286" d="M1675.727 1.27l35.356 35.355-35.356 35.355-35.355-35.355z"/><path fill="#081647" d="M1293.89 383.107l35.355 35.355-35.355 35.356-35.356-35.356z"/><path fill="#071340" d="M1255.706 421.29l35.355 35.356-35.355 35.356-35.355-35.356z"/><path fill="#050F39" d="M1217.522 459.475l35.356 35.355-35.356 35.355-35.355-35.355z"/><path fill="#050F3C" d="M1179.338 497.658l35.356 35.356-35.356 35.355-35.355-35.355z"/><path fill="#000F2F" d="M1141.155 535.842l35.355 35.356-35.355 35.355-35.356-35.355z"/><path fill="#030E2B" d="M1102.97 574.026l35.356 35.355-35.355 35.356-35.355-35.356z"/><path fill="#02102C" d="M1064.787 612.21l35.355 35.355-35.355 35.355-35.355-35.355z"/><path fill="#030E2B" d="M1026.603 650.394l35.356 35.355-35.356 35.355-35.355-35.355z"/><path fill="#010C28" d="M988.42 688.577l35.355 35.356-35.355 35.355-35.356-35.355z"/><path fill="#081C52" d="M1408.441 344.923l35.355 35.356-35.355 35.355-35.355-35.355z"/><path fill="#04215F" d="M1522.992 230.372l35.356 35.355-35.356 35.356-35.355-35.356z"/><path fill="#1A1F81" d="M1637.544 115.82l35.355 35.356-35.355 35.355-35.356-35.355z"/><path fill="#042F79" d="M1752.095 1.27l35.355 35.355-35.355 35.355-35.355-35.355z"/><path fill="#08164B" d="M1370.257 383.107l35.356 35.355-35.356 35.356-35.355-35.356z"/><path fill="#0C1B55" d="M1446.625 306.74l35.355 35.355-35.355 35.355-35.356-35.355z"/><path fill="#07175D" d="M1484.809 268.556l35.355 35.355-35.355 35.356-35.356-35.356z"/><path fill="#04215F" d="M1561.176 192.188l35.355 35.356-35.355 35.355-35.355-35.355z"/><path fill="#02246B" d="M1599.36 154.005l35.355 35.355-35.355 35.355-35.355-35.355z"/><path fill="#0D2A81" d="M1675.727 77.637l35.356 35.355-35.356 35.356-35.355-35.356zm38.184-38.184l35.356 35.356-35.356 35.355-35.355-35.355z"/><path fill="#0D367C" d="M1790.279-36.914l35.355 35.355-35.355 35.355-35.356-35.355z"/><path fill="#081445" d="M1332.074 421.29l35.355 35.356-35.355 35.356-35.356-35.356z"/><path fill="#07113A" d="M1293.89 459.475l35.355 35.355-35.355 35.355-35.356-35.355z"/><path fill="#050F36" d="M1255.706 497.658l35.355 35.356-35.355 35.355-35.355-35.355z"/><path fill="#040D32" d="M1217.522 535.842l35.356 35.356-35.356 35.355-35.355-35.355z"/><path fill="#02102C" d="M1179.338 574.026l35.356 35.355-35.356 35.356-35.355-35.356z"/><path fill="#030E2B" d="M1141.155 612.21l35.355 35.355-35.355 35.355-35.356-35.355z"/><path fill="#020E2B" d="M1102.97 650.394l35.356 35.355-35.355 35.355-35.355-35.355z"/><path fill="#010C27" d="M1064.787 688.577l35.355 35.356-35.355 35.355-35.355-35.355z"/><path fill="#010C28" d="M1026.603 726.761l35.356 35.355-35.356 35.356-35.355-35.356z"/><path fill="#042F79" d="M1866.646-36.914l35.356 35.355-35.356 35.355-35.355-35.355z"/><path fill="#081647" d="M1446.625 383.107l35.355 35.355-35.355 35.356-35.356-35.356z"/><path fill="#07175D" d="M1561.176 268.556l35.355 35.355-35.355 35.356-35.355-35.356z"/><path fill="#0B236A" d="M1675.727 154.005l35.356 35.355-35.356 35.355-35.355-35.355z"/><path fill="#02286A" d="M1790.279 39.453l35.355 35.356-35.355 35.355-35.356-35.355z"/><path fill="#051646" d="M1408.441 421.29l35.355 35.356-35.355 35.356-35.355-35.356z"/><path fill="#0B1A4D" d="M1484.809 344.923l35.355 35.356-35.355 35.355-35.356-35.355z"/><path fill="#091955" d="M1522.992 306.74l35.356 35.355-35.356 35.355-35.355-35.355z"/><path fill="#071964" d="M1599.36 230.372l35.355 35.355-35.355 35.356-35.355-35.356z"/><path fill="#04215F" d="M1637.544 192.188l35.355 35.356-35.355 35.355-35.356-35.355z"/><path fill="#001F7B" d="M1713.911 115.82l35.356 35.356-35.356 35.355-35.355-35.355z"/><path fill="#062172" d="M1752.095 77.637l35.355 35.355-35.355 35.356-35.355-35.356z"/><path fill="#0D2A81" d="M1828.462 1.27l35.356 35.355-35.356 35.355-35.355-35.355z"/><path fill="#051142" d="M1370.257 459.475l35.356 35.355-35.356 35.355-35.355-35.355z"/><path fill="#081038" d="M1332.074 497.658l35.355 35.356-35.355 35.355-35.356-35.355z"/><path fill="#040D33" d="M1293.89 535.842l35.355 35.356-35.355 35.355-35.356-35.355z"/><path fill="#030F2E" d="M1255.706 574.026l35.355 35.355-35.355 35.356-35.355-35.356z"/><path fill="#020E2B" d="M1217.522 612.21l35.356 35.355-35.356 35.355-35.355-35.355zm-38.184 38.184l35.356 35.355-35.356 35.355-35.355-35.355z"/><path fill="#010C28" d="M1141.155 688.577l35.355 35.356-35.355 35.355-35.356-35.355zm-38.185 38.184l35.356 35.355-35.355 35.356-35.355-35.356z"/><path fill="#001C58" d="M1332.074 268.556l35.355 35.355-35.355 35.356-35.356-35.356z"/><path fill="#031F6F" d="M1446.625 154.005l35.355 35.355-35.355 35.355-35.356-35.355z"/><path fill="#0D2A81" d="M1561.176 39.453l35.355 35.356-35.355 35.355-35.355-35.355z"/><path fill="#0B194E" d="M1293.89 306.74l35.355 35.355-35.355 35.355-35.356-35.355z"/><path fill="#031B61" d="M1370.257 230.372l35.356 35.355-35.356 35.356-35.355-35.356z"/><path fill="#112261" d="M1408.441 192.188l35.355 35.356-35.355 35.355-35.355-35.355z"/><path fill="#062275" d="M1484.809 115.82l35.355 35.356-35.355 35.355-35.356-35.355z"/><path fill="#112B7A" d="M1522.992 77.637l35.356 35.355-35.356 35.356-35.355-35.356z"/><path fill="#0D2A81" d="M1599.36 1.27l35.355 35.355-35.355 35.355-35.355-35.355z"/><path fill="#042F79" d="M1637.544-36.914l35.355 35.355-35.355 35.355-35.356-35.355z"/><path fill="#04124F" d="M1255.706 344.923l35.355 35.356-35.355 35.355-35.355-35.355z"/><path fill="#071645" d="M1217.522 383.107l35.356 35.355-35.356 35.356-35.355-35.356z"/><path fill="#041142" d="M1179.338 421.29l35.356 35.356-35.356 35.356-35.355-35.356z"/><path fill="#06113E" d="M1141.155 459.475l35.355 35.355-35.355 35.355-35.356-35.355z"/><path fill="#030D37" d="M1102.97 497.658l35.356 35.356-35.355 35.355-35.355-35.355z"/><path fill="#000F2C" d="M1064.787 535.842l35.355 35.356-35.355 35.355-35.355-35.355z"/><path fill="#02102C" d="M1026.603 574.026l35.356 35.355-35.356 35.356-35.355-35.356z"/><path fill="#030E2B" d="M988.42 612.21l35.355 35.355-35.355 35.355-35.356-35.355z"/><path fill="#010C28" d="M950.236 650.394l35.355 35.355-35.355 35.355-35.355-35.355zm-38.184 38.183l35.355 35.356-35.355 35.355-35.355-35.355z"/><path fill="#0A2261" d="M1293.89 230.372l35.355 35.355-35.355 35.356-35.356-35.356z"/><path fill="#102277" d="M1408.441 115.82l35.355 35.356-35.355 35.355-35.355-35.355z"/><path fill="#042F79" d="M1522.992 1.27l35.356 35.355-35.356 35.355-35.355-35.355z"/><path fill="#071756" d="M1255.706 268.556l35.355 35.355-35.355 35.356-35.355-35.356z"/><path fill="#04215F" d="M1332.074 192.188l35.355 35.356-35.355 35.355-35.356-35.355z"/><path fill="#092065" d="M1370.257 154.005l35.356 35.355-35.356 35.355-35.355-35.355z"/><path fill="#112C7D" d="M1446.625 77.637l35.355 35.355-35.355 35.356-35.356-35.356z"/><path fill="#012C76" d="M1484.809 39.453l35.355 35.356-35.355 35.355-35.356-35.355z"/><path fill="#001C8F" d="M1561.176-36.914l35.355 35.355-35.355 35.355-35.355-35.355z"/><path fill="#021849" d="M1217.522 306.74l35.356 35.355-35.356 35.355-35.355-35.355z"/><path fill="#091647" d="M1179.338 344.923l35.356 35.356-35.356 35.355-35.355-35.355z"/><path fill="#06123D" d="M1141.155 383.107l35.355 35.355-35.355 35.356-35.356-35.356z"/><path fill="#031041" d="M1102.97 421.29l35.356 35.356-35.355 35.356-35.355-35.356z"/><path fill="#040D35" d="M1064.787 459.475l35.355 35.355-35.355 35.355-35.355-35.355z"/><path fill="#011130" d="M1026.603 497.658l35.356 35.356-35.356 35.355-35.355-35.355z"/><path fill="#02102C" d="M988.42 535.842l35.355 35.356-35.355 35.355-35.356-35.355z"/><path fill="#030E2B" d="M950.236 574.026l35.355 35.355-35.355 35.356-35.355-35.356z"/><path fill="#010C28" d="M912.052 612.21l35.355 35.355-35.355 35.355-35.355-35.355zm-38.184 38.184l35.356 35.355-35.356 35.355-35.355-35.355z"/><path fill="#04215F" d="M1255.706 192.188l35.355 35.356-35.355 35.355-35.355-35.355z"/><path fill="#0E2878" d="M1370.257 77.637l35.356 35.355-35.356 35.356-35.355-35.356z"/><path fill="#0A3580" d="M1484.809-36.914l35.355 35.355-35.355 35.355-35.356-35.355z"/><path fill="#031A64" d="M1217.522 230.372l35.356 35.355-35.356 35.356-35.355-35.356z"/><path fill="#042565" d="M1293.89 154.005l35.355 35.355-35.355 35.355-35.356-35.355z"/><path fill="#0B2674" d="M1332.074 115.82l35.355 35.356-35.355 35.355-35.356-35.355z"/><path fill="#023180" d="M1408.441 39.453l35.355 35.356-35.355 35.355-35.355-35.355z"/><path fill="#042F79" d="M1446.625 1.27l35.355 35.355-35.355 35.355-35.356-35.355z"/><path fill="#031C50" d="M1179.338 268.556l35.356 35.355-35.356 35.356-35.355-35.356z"/><path fill="#04134F" d="M1141.155 306.74l35.355 35.355-35.355 35.355-35.356-35.355z"/><path fill="#031045" d="M1102.97 344.923l35.356 35.356-35.355 35.355-35.355-35.355z"/><path fill="#06123D" d="M1064.787 383.107l35.355 35.355-35.355 35.356-35.355-35.356z"/><path fill="#050F3D" d="M1026.603 421.29l35.356 35.356-35.356 35.356-35.355-35.356z"/><path fill="#03122F" d="M988.42 459.475l35.355 35.355-35.355 35.355-35.356-35.355z"/><path fill="#020F30" d="M950.236 497.658l35.355 35.356-35.355 35.355-35.355-35.355z"/><path fill="#020E2B" d="M912.052 535.842l35.355 35.356-35.355 35.355-35.355-35.355z"/><path fill="#030D27" d="M873.868 574.026l35.356 35.355-35.356 35.356-35.355-35.356z"/><path fill="#010C28" d="M835.685 612.21l35.355 35.355-35.355 35.355-35.356-35.355z"/><path fill="#051D65" d="M1217.522 154.005l35.356 35.355-35.356 35.355-35.355-35.355z"/><path fill="#0A2575" d="M1332.074 39.453l35.355 35.356-35.355 35.355-35.356-35.355z"/><path fill="#021761" d="M1179.338 192.188l35.356 35.356-35.356 35.355-35.355-35.355z"/><path fill="#0A226B" d="M1255.706 115.82l35.355 35.356-35.355 35.355-35.355-35.355z"/><path fill="#072272" d="M1293.89 77.637l35.355 35.355-35.355 35.356-35.356-35.356z"/><path fill="#0D2A81" d="M1370.257 1.27l35.356 35.355-35.356 35.355-35.355-35.355z"/><path fill="#042F79" d="M1408.441-36.914l35.355 35.355-35.355 35.355-35.355-35.355z"/><path fill="#031B4C" d="M1141.155 230.372l35.355 35.355-35.355 35.356-35.356-35.356z"/><path fill="#041453" d="M1102.97 268.556l35.356 35.355-35.355 35.356-35.355-35.356z"/><path fill="#0B1247" d="M1064.787 306.74l35.355 35.355-35.355 35.355-35.355-35.355z"/><path fill="#091044" d="M1026.603 344.923l35.356 35.356-35.356 35.355-35.355-35.355z"/><path fill="#000B3F" d="M988.42 383.107l35.355 35.355-35.355 35.356-35.356-35.356z"/><path fill="#001134" d="M950.236 421.29l35.355 35.356-35.355 35.356-35.355-35.356z"/><path fill="#020F2F" d="M912.052 459.475l35.355 35.355-35.355 35.355-35.355-35.355z"/><path fill="#020E2B" d="M873.868 497.658l35.356 35.356-35.356 35.355-35.355-35.355zm-38.183 38.184l35.355 35.356-35.355 35.355-35.356-35.355z"/><path fill="#010C28" d="M797.5 574.026l35.356 35.355-35.355 35.356-35.356-35.356z"/><path fill="#041D71" d="M1179.338 115.82l35.356 35.356-35.356 35.355-35.355-35.355z"/><path fill="#0E2081" d="M1293.89 1.27l35.355 35.355-35.355 35.355-35.356-35.355z"/><path fill="#031961" d="M1141.155 154.005l35.355 35.355-35.355 35.355-35.356-35.355z"/><path fill="#052173" d="M1217.522 77.637l35.356 35.355-35.356 35.356-35.355-35.356z"/><path fill="#112A74" d="M1255.706 39.453l35.355 35.356-35.355 35.355-35.355-35.355z"/><path fill="#042F79" d="M1332.074-36.914l35.355 35.355-35.355 35.355-35.356-35.355z"/><path fill="#091B58" d="M1102.97 192.188l35.356 35.356-35.355 35.355-35.355-35.355z"/><path fill="#0C1454" d="M1064.787 230.372l35.355 35.355-35.355 35.356-35.355-35.356z"/><path fill="#071345" d="M1026.603 268.556l35.356 35.355-35.356 35.356-35.355-35.356z"/><path fill="#070E44" d="M988.42 306.74l35.355 35.355-35.355 35.355-35.356-35.355z"/><path fill="#06113C" d="M950.236 344.923l35.355 35.356-35.355 35.355-35.355-35.355z"/><path fill="#031334" d="M912.052 383.107l35.355 35.355-35.355 35.356-35.355-35.356z"/><path fill="#03102F" d="M873.868 421.29l35.356 35.356-35.356 35.356-35.355-35.356z"/><path fill="#030E2B" d="M835.685 459.475l35.355 35.355-35.355 35.355-35.356-35.355zM797.5 497.658l35.356 35.356-35.355 35.355-35.356-35.355z"/><path fill="#010C28" d="M759.317 535.842l35.355 35.356-35.355 35.355-35.355-35.355z"/><path fill="#020C25" d="M721.133 574.026l35.356 35.355-35.356 35.356-35.355-35.356z"/><path fill="#041B66" d="M1141.155 77.637l35.355 35.355-35.355 35.356-35.356-35.356z"/><path fill="#171D9A" d="M1255.706-36.914l35.355 35.355-35.355 35.355-35.355-35.355z"/><path fill="#001A69" d="M1102.97 115.82l35.356 35.356-35.355 35.355-35.355-35.355z"/><path fill="#09217A" d="M1179.338 39.453l35.356 35.356-35.356 35.355-35.355-35.355z"/><path fill="#0C2485" d="M1217.522 1.27l35.356 35.355-35.356 35.355-35.355-35.355z"/><path fill="#0A1B58" d="M1064.787 154.005l35.355 35.355-35.355 35.355-35.355-35.355z"/><path fill="#031D50" d="M1026.603 192.188l35.356 35.356-35.356 35.355-35.355-35.355z"/><path fill="#021844" d="M988.42 230.372l35.355 35.355-35.355 35.356-35.356-35.356z"/><path fill="#0D1441" d="M950.236 268.556l35.355 35.355-35.355 35.356-35.355-35.356z"/><path fill="#03163C" d="M912.052 306.74l35.355 35.355-35.355 35.355-35.355-35.355z"/><path fill="#00143A" d="M873.868 344.923l35.356 35.356-35.356 35.355-35.355-35.355z"/><path fill="#021230" d="M835.685 383.107l35.355 35.355-35.355 35.356-35.356-35.356z"/><path fill="#030F2F" d="M797.5 421.29l35.356 35.356-35.355 35.356-35.356-35.356z"/><path fill="#020E2B" d="M759.317 459.475l35.355 35.355-35.355 35.355-35.355-35.355z"/><path fill="#010C28" d="M721.133 497.658l35.356 35.356-35.356 35.355-35.355-35.355z"/><path fill="#020C25" d="M682.95 535.842l35.355 35.356-35.356 35.355-35.355-35.355z"/><path fill="#00195D" d="M950.236-36.914L985.59-1.56l-35.355 35.355L914.88-1.559z"/><path fill="#0B1756" d="M912.052 1.27l35.355 35.355-35.355 35.355-35.355-35.355z"/><path fill="#071551" d="M873.868 39.453l35.356 35.356-35.356 35.355-35.355-35.355z"/><path fill="#07154D" d="M835.685 77.637l35.355 35.355-35.355 35.356-35.356-35.356z"/><path fill="#061244" d="M797.5 115.82l35.356 35.356-35.355 35.355-35.356-35.355z"/><path fill="#071243" d="M759.317 154.005l35.355 35.355-35.355 35.355-35.355-35.355z"/><path fill="#041536" d="M721.133 192.188l35.356 35.356-35.356 35.355-35.355-35.355z"/><path fill="#031335" d="M682.95 230.372l35.355 35.355-35.356 35.356-35.355-35.356z"/><path fill="#010E31" d="M644.766 268.556l35.355 35.355-35.355 35.356-35.356-35.356z"/><path fill="#010D2B" d="M606.582 306.74l35.355 35.355-35.355 35.355-35.355-35.355z"/><path fill="#010C28" d="M568.398 344.923l35.356 35.356-35.356 35.355-35.355-35.355zm-38.184 38.184l35.356 35.355-35.356 35.356-35.355-35.356z"/><path fill="#010B25" d="M492.03 421.29l35.356 35.356-35.355 35.356-35.356-35.356z"/><path fill="#081658" d="M873.868-36.914L909.224-1.56l-35.356 35.355L838.513-1.56z"/><path fill="#0D154F" d="M835.685 1.27l35.355 35.355-35.355 35.355-35.356-35.355z"/><path fill="#020F4C" d="M797.5 39.453l35.356 35.356-35.355 35.355-35.356-35.355z"/><path fill="#0B1240" d="M759.317 77.637l35.355 35.355-35.355 35.356-35.355-35.356z"/><path fill="#04153D" d="M721.133 115.82l35.356 35.356-35.356 35.355-35.355-35.355z"/><path fill="#041435" d="M682.95 154.005l35.355 35.355-35.356 35.355-35.355-35.355z"/><path fill="#0C1231" d="M644.766 192.188l35.355 35.356-35.355 35.355-35.356-35.355z"/><path fill="#080F31" d="M606.582 230.372l35.355 35.355-35.355 35.356-35.355-35.356z"/><path fill="#030E2A" d="M568.398 268.556l35.356 35.355-35.356 35.356-35.355-35.356z"/><path fill="#010C28" d="M530.214 306.74l35.356 35.355-35.356 35.355-35.355-35.355zm-38.184 38.183l35.356 35.356-35.355 35.355-35.356-35.355z"/><path fill="#010B25" d="M453.847 383.107l35.355 35.355-35.355 35.356-35.355-35.356z"/><path fill="#041E77" d="M1026.603-36.914L1061.96-1.56l-35.356 35.355L991.249-1.56z"/><path fill="#0A156B" d="M988.42 1.27l35.355 35.355L988.42 71.98l-35.356-35.355z"/><path fill="#081A5D" d="M950.236 39.453L985.59 74.81l-35.355 35.355L914.88 74.81z"/><path fill="#021255" d="M912.052 77.637l35.355 35.355-35.355 35.356-35.355-35.356z"/><path fill="#08114D" d="M873.868 115.82l35.356 35.356-35.356 35.355-35.355-35.355z"/><path fill="#0A1249" d="M835.685 154.005l35.355 35.355-35.355 35.355-35.356-35.355z"/><path fill="#051343" d="M797.5 192.188l35.356 35.356-35.355 35.355-35.356-35.355z"/><path fill="#041537" d="M759.317 230.372l35.355 35.355-35.355 35.356-35.355-35.356z"/><path fill="#021334" d="M721.133 268.556l35.356 35.355-35.356 35.356-35.355-35.356z"/><path fill="#070E2F" d="M682.95 306.74l35.355 35.355-35.356 35.355-35.355-35.355z"/><path fill="#020E2B" d="M644.766 344.923l35.355 35.356-35.355 35.355-35.356-35.355z"/><path fill="#010C28" d="M606.582 383.107l35.355 35.355-35.355 35.356-35.355-35.356zm-38.184 38.183l35.356 35.356-35.356 35.356-35.355-35.356z"/><path fill="#010B25" d="M530.214 459.475l35.356 35.355-35.356 35.355-35.355-35.355z"/><path fill="#021254" d="M797.5-36.914L832.857-1.56l-35.355 35.355L762.146-1.56z"/><path fill="#011252" d="M759.317 1.27l35.355 35.355-35.355 35.355-35.355-35.355z"/><path fill="#061244" d="M721.133 39.453L756.49 74.81l-35.356 35.355-35.355-35.355z"/><path fill="#051141" d="M682.95 77.637l35.355 35.355-35.356 35.356-35.355-35.356z"/><path fill="#031339" d="M644.766 115.82l35.355 35.356-35.355 35.355-35.356-35.355z"/><path fill="#031233" d="M606.582 154.005l35.355 35.355-35.355 35.355-35.355-35.355z"/><path fill="#020F30" d="M568.398 192.188l35.356 35.356-35.356 35.355-35.355-35.355z"/><path fill="#020E2B" d="M530.214 230.372l35.356 35.355-35.356 35.356-35.355-35.356z"/><path fill="#010C28" d="M492.03 268.556l35.356 35.355-35.355 35.356-35.356-35.356z"/><path fill="#020C25" d="M453.847 306.74l35.355 35.355-35.355 35.355-35.355-35.355z"/><path fill="#010B25" d="M415.663 344.923l35.355 35.356-35.355 35.355-35.355-35.355z"/><path fill="#091449" d="M721.133-36.914L756.49-1.56l-35.356 35.355L685.779-1.56z"/><path fill="#04183F" d="M682.95 1.27l35.355 35.355-35.356 35.355-35.355-35.355z"/><path fill="#05133F" d="M644.766 39.453L680.12 74.81l-35.355 35.355-35.356-35.355z"/><path fill="#08103A" d="M606.582 77.637l35.355 35.355-35.355 35.356-35.355-35.356z"/><path fill="#031033" d="M568.398 115.82l35.356 35.356-35.356 35.355-35.355-35.355z"/><path fill="#081032" d="M530.214 154.005l35.356 35.355-35.356 35.355-35.355-35.355z"/><path fill="#010C2A" d="M492.03 192.188l35.356 35.356-35.355 35.355-35.356-35.355z"/><path fill="#010C28" d="M453.847 230.372l35.355 35.355-35.355 35.356-35.355-35.356zm-38.184 38.184l35.355 35.355-35.355 35.356-35.355-35.356z"/><path fill="#010B25" d="M377.48 306.74l35.355 35.355-35.356 35.355-35.355-35.355z"/><path fill="#06183D" d="M644.766-36.914L680.12-1.56l-35.355 35.355L609.41-1.559z"/><path fill="#05123A" d="M606.582 1.27l35.355 35.355-35.355 35.355-35.355-35.355z"/><path fill="#060E37" d="M568.398 39.453l35.356 35.356-35.356 35.355-35.355-35.355z"/><path fill="#070E33" d="M530.214 77.637l35.356 35.355-35.356 35.356-35.355-35.356z"/><path fill="#04102F" d="M492.03 115.82l35.356 35.356-35.355 35.355-35.356-35.355z"/><path fill="#020E2B" d="M453.847 154.005l35.355 35.355-35.355 35.355-35.355-35.355z"/><path fill="#010C28" d="M415.663 192.188l35.355 35.356-35.355 35.355-35.355-35.355z"/><path fill="#020C25" d="M377.48 230.372l35.355 35.355-35.356 35.356-35.355-35.356z"/><path fill="#010B25" d="M339.296 268.556l35.355 35.355-35.355 35.356-35.356-35.356z"/><path fill="#061F71" d="M1102.97 39.453l35.356 35.356-35.355 35.355-35.355-35.355z"/><path fill="#001D5F" d="M1064.787 77.637l35.355 35.355-35.355 35.356-35.355-35.356z"/><path fill="#0A207C" d="M1141.155 1.27l35.355 35.355-35.355 35.355-35.356-35.355z"/><path fill="#03248A" d="M1179.338-36.914l35.356 35.355-35.356 35.355-35.355-35.355z"/><path fill="#071655" d="M1026.603 115.82l35.356 35.356-35.356 35.355-35.355-35.355z"/><path fill="#0A1850" d="M988.42 154.005l35.355 35.355-35.355 35.355-35.356-35.355z"/><path fill="#001B52" d="M950.236 192.188l35.355 35.356-35.355 35.355-35.355-35.355z"/><path fill="#0A114B" d="M912.052 230.372l35.355 35.355-35.355 35.356-35.355-35.356z"/><path fill="#0B1439" d="M873.868 268.556l35.356 35.355-35.356 35.356-35.355-35.356z"/><path fill="#031434" d="M835.685 306.74l35.355 35.355-35.355 35.355-35.356-35.355z"/><path fill="#021334" d="M797.5 344.923l35.356 35.356-35.355 35.355-35.356-35.355z"/><path fill="#030F30" d="M759.317 383.107l35.355 35.355-35.355 35.356-35.355-35.356z"/><path fill="#020E2B" d="M721.133 421.29l35.356 35.356-35.356 35.356-35.355-35.356z"/><path fill="#010C28" d="M682.95 459.475l35.355 35.355-35.356 35.355-35.355-35.355z"/><path fill="#020C25" d="M644.766 497.658l35.355 35.356-35.355 35.355-35.356-35.355z"/><path fill="#021B73" d="M1064.787 1.27l35.355 35.355-35.355 35.355-35.355-35.355z"/><path fill="#061865" d="M1026.603 39.453l35.356 35.356-35.356 35.355-35.355-35.355z"/><path fill="#052972" d="M1102.97-36.914l35.356 35.355-35.355 35.355-35.355-35.355z"/><path fill="#0C1A55" d="M988.42 77.637l35.355 35.355-35.355 35.356-35.356-35.356z"/><path fill="#0B1B52" d="M950.236 115.82l35.355 35.356-35.355 35.355-35.355-35.355z"/><path fill="#041650" d="M912.052 154.005l35.355 35.355-35.355 35.355-35.355-35.355z"/><path fill="#0B1747" d="M873.868 192.188l35.356 35.356-35.356 35.355-35.355-35.355z"/><path fill="#041340" d="M835.685 230.372l35.355 35.355-35.355 35.356-35.356-35.356z"/><path fill="#071338" d="M797.5 268.556l35.356 35.355-35.355 35.356-35.356-35.356z"/><path fill="#051336" d="M759.317 306.74l35.355 35.355-35.355 35.355-35.355-35.355z"/><path fill="#020F2F" d="M721.133 344.923l35.356 35.356-35.356 35.355-35.355-35.355z"/><path fill="#020E2C" d="M682.95 383.107l35.355 35.355-35.356 35.356-35.355-35.356z"/><path fill="#010D2C" d="M644.766 421.29l35.355 35.356-35.355 35.356-35.356-35.356z"/><path fill="#010C28" d="M606.582 459.475l35.355 35.355-35.355 35.355-35.355-35.355z"/><path fill="#00143E" d="M568.398-36.914L603.754-1.56l-35.356 35.355L533.043-1.56z"/><path fill="#030E30" d="M530.214 1.27l35.356 35.355-35.356 35.355-35.355-35.355z"/><path fill="#030F2F" d="M492.03 39.453l35.356 35.356-35.355 35.355-35.356-35.355z"/><path fill="#040F2B" d="M453.847 77.637l35.355 35.355-35.355 35.356-35.355-35.356z"/><path fill="#020E2B" d="M415.663 115.82l35.355 35.356-35.355 35.355-35.355-35.355z"/><path fill="#010C28" d="M377.48 154.005l35.355 35.355-35.356 35.355-35.355-35.355zm-38.184 38.183l35.355 35.356-35.355 35.355-35.356-35.355z"/><path fill="#020C25" d="M301.112 230.372l35.355 35.355-35.355 35.356-35.356-35.356z"/><path fill="#06112B" d="M492.03-36.914L527.387-1.56l-35.355 35.355L456.676-1.56z"/><path fill="#07112B" d="M453.847 1.27l35.355 35.355-35.355 35.355-35.355-35.355z"/><path fill="#020E2B" d="M415.663 39.453l35.355 35.356-35.355 35.355-35.355-35.355zM377.48 77.637l35.355 35.355-35.356 35.356-35.355-35.356z"/><path fill="#010C28" d="M339.296 115.82l35.355 35.356-35.355 35.355-35.356-35.355zm-38.184 38.185l35.355 35.355-35.355 35.355-35.356-35.355z"/><path fill="#020C25" d="M262.928 192.188l35.355 35.356-35.355 35.355-35.355-35.355z"/><path fill="#06112B" d="M415.663-36.914L451.018-1.56l-35.355 35.355L380.308-1.56z"/><path fill="#020E2B" d="M377.48 1.27l35.355 35.355-35.356 35.355-35.355-35.355z"/><path fill="#010C28" d="M339.296 39.453L374.65 74.81l-35.355 35.355-35.356-35.355zm-38.184 38.184l35.355 35.355-35.355 35.356-35.356-35.356z"/><path fill="#020C25" d="M262.928 115.82l35.355 35.356-35.355 35.355-35.355-35.355zm-38.184 38.185L260.1 189.36l-35.356 35.355-35.355-35.355z"/><path fill="#07112B" d="M339.296-36.914L374.65-1.56l-35.355 35.355L303.94-1.559z"/><path fill="#010C28" d="M301.112 1.27l35.355 35.355-35.355 35.355-35.356-35.355zm-38.184 38.183l35.355 35.356-35.355 35.355-35.355-35.355zm-38.184 38.184l35.356 35.355-35.356 35.356-35.355-35.356z"/><path fill="#020C25" d="M186.56 115.82l35.356 35.356-35.355 35.355-35.356-35.355z"/><path fill="#010C28" d="M262.928-36.914L298.283-1.56l-35.355 35.355L227.573-1.56zM224.744 1.27L260.1 36.624 224.744 71.98 189.39 36.625z"/><path fill="#020C25" d="M186.56 39.453l35.356 35.356-35.355 35.355-35.356-35.355zm-38.183 38.184l35.355 35.355-35.355 35.356-35.356-35.356z"/><path fill="#010C28" d="M186.56-36.914L221.917-1.56 186.56 33.796 151.205-1.559z"/><path fill="#020C25" d="M148.377 1.27l35.355 35.355-35.355 35.355-35.356-35.355zm-38.184 38.183l35.355 35.356-35.355 35.355-35.355-35.355z"/><path fill="#010C28" d="M110.193-36.914L145.548-1.56l-35.355 35.355L74.838-1.559z"/><path fill="#020C25" d="M72.01 1.27l35.355 35.355L72.009 71.98 36.654 36.625z"/><path fill="#010C28" d="M33.825-36.914L69.181-1.56 33.825 33.796-1.53-1.559z"/></g></svg>