<svg width="680" height="216" viewBox="0 0 680 216" xmlns="http://www.w3.org/2000/svg" xmlns:xlink="http://www.w3.org/1999/xlink"><title>Setapp_Logo_2</title><defs><path id="a" d="M34 0L0 34l34 34 34-34L34 0z"/><linearGradient x1="82.503%" y1="85.234%" x2="17.46%" y2="7.794%" id="b"><stop stop-color="#6A9FFF" offset="0%"/><stop stop-color="#000EFD" offset="100%"/></linearGradient><path id="d" d="M34 0L0 34l34 34 34-34L34 0z"/><path id="f" d="M34 0L0 34l34 34 34-34L34 0z"/><path id="h" d="M34 0L0 34l34 34 34-34L34 0z"/><linearGradient x1="0%" y1="9.092%" x2="96.754%" y2="62.276%" id="i"><stop stop-color="#A8A6FF" offset="0%"/><stop stop-color="#2C01FF" offset="100%"/></linearGradient><path id="k" d="M34 0L0 34l34 34 34-34L34 0z"/></defs><g fill="none" fill-rule="evenodd"><path d="M199.73 76.531c0 27.256 40.365 39.019 39.212 59.533-.288 7.46-5.478 12.624-12.686 12.624-8.506 0-13.119-7.173-13.984-13.915-.144-1.435-.865-2.008-2.451-2.008h-9.947c-1.73 0-1.874 1.148-1.874 2.582.433 15.636 12.398 26.825 28.256 26.825 13.695 0 28.112-9.611 28.112-26.969 0-27.974-37.772-42.319-39.069-58.672-.287-6.025 4.037-11.046 10.235-11.046 6.344 0 9.66 5.594 10.813 11.62.144 1.577.865 2.007 2.451 2.007h9.947c1.73 0 1.874-1.147 1.874-2.581C249.898 63.19 240.96 52 225.102 52c-15.137 0-25.372 10.615-25.372 24.531zm433.206-23.24c-2.161 0-3.027.861-3.027 3.013v101.565c0 2.152.866 3.012 3.027 3.012h9.371c2.163 0 3.028-.86 3.028-3.012v-32.995c0-2.151.576-2.725 2.738-2.725h7.641c15.281 0 26.381-11.046 26.381-29.552v-9.755c0-18.505-11.1-29.551-26.381-29.551h-22.778zm12.399 51.93V69.645c0-2.152.576-2.726 2.738-2.726h6.344c6.343 0 12.254 4.734 12.254 15.637v9.755c0 10.902-5.911 15.636-12.254 15.636h-6.344c-2.162 0-2.738-.574-2.738-2.726zm-100.049-51.93c-2.162 0-3.027.861-3.027 3.013v101.565c0 2.152.865 3.012 3.027 3.012h9.37c2.163 0 3.029-.86 3.029-3.012v-32.995c0-2.151.576-2.725 2.737-2.725h7.641c15.282 0 26.382-11.046 26.382-29.552v-9.755c0-18.505-11.1-29.551-26.382-29.551h-22.777zm12.399 51.93V69.645c0-2.152.576-2.726 2.737-2.726h6.345c6.343 0 12.253 4.734 12.253 15.637v9.755c0 10.902-5.91 15.636-12.253 15.636h-6.345c-2.161 0-2.737-.574-2.737-2.726zm-84.624-51.93c-2.306 0-3.316.431-3.748 2.87l-22.922 101.851c-.576 2.152.577 2.869 2.162 2.869h9.803c1.875 0 2.74-.717 3.316-2.869l3.604-17.071c.433-1.721 1.009-2.008 2.883-2.008h17.3c1.874 0 2.451.287 2.882 2.008l3.605 17.071c.576 2.152 1.442 2.869 3.316 2.869h9.803c1.585 0 2.739-.717 2.162-2.869L484.45 56.161c-.577-2.439-1.586-2.87-3.893-2.87h-7.496zm-4.613 70.435l7.496-38.445c.145-1.004 1.587-1.004 1.73 0l7.641 38.445c.144 1.148-.433 1.579-1.154 1.579h-14.559c-.866 0-1.443-.431-1.154-1.579zm-96.589-70.435c-2.162 0-3.027.861-3.027 3.013v7.603c0 2.152.865 3.012 3.027 3.012h12.542c2.162 0 2.74.574 2.74 2.726v88.224c0 2.152.865 3.012 3.027 3.012h9.37c2.163 0 3.027-.86 3.027-3.012V69.645c0-2.152.578-2.726 2.74-2.726h12.541c2.164 0 3.028-.86 3.028-3.012v-7.603c0-2.152-.864-3.013-3.028-3.013h-45.987zm-76.838 0c-2.162 0-3.027.861-3.027 3.013v101.565c0 2.152.865 3.012 3.027 3.012h36.04c2.163 0 3.028-.86 3.028-3.012v-7.603c0-2.151-.865-3.013-3.028-3.013h-20.902c-2.163 0-2.74-.573-2.74-2.726v-29.264c0-2.151.577-2.725 2.74-2.725h20.902c2.163 0 3.028-.861 3.028-3.013v-7.747c0-2.152-.865-3.012-3.028-3.012h-20.902c-2.163 0-2.74-.575-2.74-2.726V69.645c0-2.152.577-2.726 2.74-2.726h20.902c2.163 0 3.028-.86 3.028-3.012v-7.603c0-2.152-.865-3.013-3.028-3.013h-36.04z" fill="#FFF"/><path fill="#45E0FF" d="M77 0L43 34l34 34 34-34L77 0z"/><path fill="#84E7FF" d="M114 37L80 71l34 34 34-34-34-34z"/><g transform="translate(6 37)"><mask id="c" fill="#fff"><use xlink:href="#a"/></mask><use fill="#35D9FF" xlink:href="#a"/><path fill="url(#b)" mask="url(#c)" d="M116 134l27-26L34 0z"/></g><g transform="translate(43 74)"><mask id="e" fill="#fff"><use xlink:href="#d"/></mask><use fill="#34B6FF" xlink:href="#d"/><path fill="url(#b)" mask="url(#e)" d="M79 97l27-26L-3-37z"/></g><g transform="translate(80 111)"><mask id="g" fill="#fff"><use xlink:href="#f"/></mask><use fill="#6A9FFF" xlink:href="#f"/><path fill="url(#b)" mask="url(#g)" d="M42 60l27-26L-40-74z"/></g><g transform="translate(6 111)"><mask id="j" fill="#fff"><use xlink:href="#h"/></mask><use fill="#A8A6FF" xlink:href="#h"/><path fill="url(#i)" mask="url(#j)" d="M16 17l83 46L34-1z"/></g><g transform="translate(43 148)"><mask id="l" fill="#fff"><use xlink:href="#k"/></mask><use fill="#A6A5FF" xlink:href="#k"/><path fill="url(#i)" mask="url(#l)" d="M-21-20l83 46-65-64z"/></g></g></svg>