<svg width="680" height="680" viewBox="0 0 680 680" xmlns="http://www.w3.org/2000/svg" style="background:#000a24"><title>Illustration pattern</title><g fill="none" fill-rule="evenodd" opacity=".5"><path fill="#010030" d="M152.547 576.51l23.334 23.335-24.041 24.042-23.335-23.335z"/><path fill="#010786" d="M301.943 426.9l23.335 23.334-24.042 24.041-23.334-23.334zm-72.812-72.828l23.335 23.335-24.042 24.041-23.335-23.334z"/><path fill="#020966" d="M350.522 475.567l23.334 23.335-24.042 24.041-23.334-23.334 24.042-24.042M180.616 305.505l23.335 23.334-24.042 24.042-23.335-23.335 24.042-24.041"/><path fill="#001451" d="M374.722 499.768l23.334 23.335-24.041 24.041-23.335-23.334 24.042-24.042M156.487 281.434l23.335 23.334-24.042 24.042-23.334-23.335 24.041-24.041"/><path fill="#000F3C" d="M423.817 499.08l23.335 23.335-24.042 24.042-23.334-23.335 24.041-24.041M157.17 232.463l23.335 23.334-24.042 24.042-23.334-23.335 24.042-24.041"/><path fill="#000A29" d="M472.828 498.177l23.334 23.335-24.041 24.041-23.335-23.334zM157.8 183.3l23.335 23.335-24.041 24.042-23.335-23.335 24.042-24.041"/><path fill="#020835" d="M128.242 552.354l23.335 23.334-24.042 24.042-23.334-23.335 24.041-24.041"/><path fill="#010733" d="M104.015 528.107l23.334 23.334-24.041 24.042-23.335-23.335 24.042-24.041"/><path fill="#221384" d="M277.639 402.741l23.334 23.335-24.041 24.042-23.335-23.335 24.042-24.042"/><path fill="#1C1C93" d="M253.411 378.494l23.335 23.335-24.042 24.041-23.334-23.334 24.041-24.042"/><path fill="#0A0A73" d="M326.232 451.185l23.335 23.334-24.042 24.042-23.334-23.335z"/><path fill="#121271" d="M205.05 329.89l23.335 23.335-24.041 24.042-23.335-23.335z"/><path fill="#12219D" d="M427.159 253.146l23.334 23.334-24.041 24.042-23.335-23.335z"/><path fill="#1525B0" d="M402.931 228.899l23.335 23.335-24.042 24.041-23.334-23.334z"/><path fill="#12118D" d="M475.745 301.702l23.335 23.335-24.042 24.041-23.334-23.334z"/><path fill="#161578" d="M354.563 180.408l23.335 23.335-24.042 24.041-23.334-23.334z"/><path fill="#020166" d="M227.259 501.827l23.334 23.335-24.041 24.041-23.335-23.334zm-72.812-72.826l23.334 23.335-24.041 24.041-23.335-23.334z"/><path fill="#000D34" d="M275.837 550.496l23.334 23.335-24.041 24.041-23.335-23.334 24.042-24.042M105.931 380.433l23.335 23.335-24.042 24.041-23.334-23.334 24.041-24.042"/><path fill="#000A2B" d="M300.045 574.584l23.334 23.334-24.041 24.042-23.335-23.335zM81.81 356.25l23.335 23.334-24.042 24.042-23.334-23.334z"/><path fill="#2B05AB" d="M376.656 352.215l23.334 23.335-24.042 24.041-23.334-23.334z"/><path fill="#2C0F8C" d="M303.843 279.389l23.334 23.334-24.041 24.042-23.335-23.334z"/><path fill="#030358" d="M425.233 400.884l23.335 23.334-24.042 24.042-23.334-23.335 24.041-24.041"/><path fill="#0A0A6B" d="M255.328 230.82l23.334 23.335-24.041 24.042-23.335-23.334 24.042-24.042"/><path fill="#061152" d="M449.434 425.085l23.334 23.334-24.041 24.042-23.335-23.335 24.042-24.041"/><path fill="#061359" d="M231.2 206.75l23.334 23.335-24.042 24.041-23.334-23.334 24.041-24.042"/><path fill="#040F30" d="M498.537 424.284l23.334 23.334-24.041 24.042-23.335-23.335z"/><path fill="#07133B" d="M231.89 157.666l23.335 23.335-24.041 24.041-23.335-23.334z"/><path fill="#040E2E" d="M547.54 423.494l23.334 23.335-24.042 24.041-23.334-23.334z"/><path fill="#040F30" d="M232.513 108.617l23.334 23.335-24.042 24.041-23.334-23.334 24.042-24.042"/><path fill="#090875" d="M526.168 202.732l23.334 23.335-24.041 24.041-23.335-23.334z"/><path fill="#070767" d="M453.355 129.906l23.334 23.334-24.041 24.042-23.335-23.335z"/><path fill="#0C0747" d="M574.746 251.4l23.334 23.335-24.041 24.042-23.335-23.335 24.042-24.041"/><path fill="#020D32" d="M598.946 275.602l23.334 23.334-24.041 24.042-23.335-23.335 24.042-24.041M405.083 81.51l23.334 23.335-24.041 24.042-23.335-23.335 24.042-24.042"/><path fill="#020B28" d="M380.788 57.52l23.335 23.335-24.042 24.041-23.334-23.334 24.041-24.042"/><path fill="#100F8E" d="M202.954 477.67l23.335 23.335-24.042 24.041-23.334-23.334 24.041-24.042"/><path fill="#1B1A87" d="M178.727 453.423l23.334 23.335-24.041 24.041-23.335-23.334 24.042-24.042"/><path fill="#130B59" d="M251.54 526.226l23.335 23.334-24.042 24.042-23.334-23.334 24.042-24.042"/><path fill="#0C025C" d="M130.358 404.932l23.335 23.335-24.042 24.041-23.334-23.334 24.041-24.042"/><path fill="#031798" d="M352.35 328.058l23.335 23.334-24.041 24.042-23.335-23.335 24.042-24.041m-24.228-24.248l23.335 23.335-24.042 24.042-23.334-23.335 24.041-24.041"/><path fill="#000C7B" d="M400.945 376.5l23.334 23.335-24.041 24.042-23.335-23.335zM279.763 255.207l23.334 23.334-24.041 24.042-23.335-23.335z"/><path fill="#10107B" d="M501.87 178.462l23.335 23.334-24.041 24.042-23.335-23.335z"/><path fill="#060682" d="M477.644 154.215l23.334 23.335-24.041 24.041-23.335-23.334z"/><path fill="#020C4F" d="M550.458 227.018l23.334 23.335-24.042 24.041-23.334-23.334zM429.275 105.724l23.335 23.334-24.042 24.042-23.335-23.335z"/><path fill="#000944" d="M177.414 551.644l23.334 23.334-24.041 24.042-23.335-23.335zm-72.813-72.826l23.335 23.335-24.042 24.041L80.56 502.86z"/><path fill="#02097D" d="M326.81 402.032l23.335 23.335-24.042 24.041-23.334-23.334zm-72.812-72.827l23.335 23.335-24.042 24.041-23.335-23.334z"/><path fill="#010B4F" d="M375.389 450.7l23.334 23.335-24.042 24.041-23.334-23.334 24.042-24.042"/><path fill="#030F5B" d="M205.483 280.637l23.335 23.335-24.042 24.042-23.335-23.335 24.042-24.042"/><path fill="#010B4F" d="M399.589 474.901l23.334 23.335-24.041 24.041-23.335-23.334L399.59 474.9M181.354 256.567L204.69 279.9l-24.042 24.042-23.334-23.335 24.041-24.041"/><path fill="#031037" d="M448.692 474.101l23.335 23.335-24.042 24.041-23.334-23.334zM182.045 207.483l23.335 23.335-24.042 24.041-23.334-23.334z"/><path fill="#000A2A" d="M497.695 473.31l23.334 23.335-24.041 24.041-23.335-23.334zM182.668 158.434l23.334 23.334-24.041 24.042-23.335-23.335 24.042-24.041"/><path fill="#0D0C99" d="M476.322 252.549l23.335 23.334-24.042 24.042-23.334-23.334z"/><path fill="#070689" d="M403.51 179.723l23.334 23.334-24.042 24.042-23.334-23.335z"/><path fill="#011757" d="M524.9 301.217l23.335 23.335-24.041 24.041-23.335-23.334 24.042-24.042"/><path fill="#001041" d="M549.1 325.418l23.335 23.335-24.041 24.041-23.335-23.334 24.042-24.042"/><path fill="#02144A" d="M355.238 131.327l23.334 23.335-24.041 24.041-23.335-23.334 24.042-24.042"/><path fill="#001041" d="M330.943 107.337l23.335 23.334-24.042 24.042-23.334-23.335 24.041-24.041"/><path fill="#030E30" d="M598.197 324.73l23.334 23.335-24.042 24.042-23.334-23.335 24.042-24.041"/><path fill="#060E25" d="M331.55 58.113l23.334 23.334-24.041 24.042-23.335-23.335 24.042-24.041"/><path fill="#0D2087" d="M451.418 277.45l23.334 23.334-24.041 24.041-23.335-23.334z"/><path fill="#0C1F88" d="M378.605 204.623l23.334 23.334L377.898 252l-23.335-23.335z"/><path fill="#051162" d="M499.996 326.118l23.334 23.334-24.041 24.042-23.335-23.334 24.042-24.042"/><path fill="#020C4F" d="M330.09 156.055l23.335 23.335-24.042 24.041-23.334-23.334 24.041-24.042m194.106 194.264l23.335 23.334-24.042 24.042-23.335-23.335 24.042-24.041M305.962 131.984l23.334 23.335-24.041 24.042-23.335-23.335 24.042-24.042"/><path fill="#02072D" d="M573.292 349.631l23.334 23.335-24.041 24.041-23.335-23.334 24.042-24.042M306.645 83.013l23.334 23.335-24.041 24.041-23.335-23.334 24.042-24.042"/><path fill="#011158" d="M153.11 527.487l23.334 23.334-24.042 24.042-23.334-23.335 24.042-24.041"/><path fill="#020F46" d="M128.882 503.24l23.334 23.334-24.041 24.042-23.335-23.335 24.042-24.041"/><path fill="#00032E" d="M201.704 575.93l23.334 23.334-24.042 24.042-23.334-23.334z"/><path fill="#2702AB" d="M302.506 377.874l23.335 23.335-24.042 24.041-23.335-23.334 24.042-24.042m-24.228-24.247l23.335 23.335-24.042 24.041-23.334-23.334 24.041-24.042"/><path fill="#051176" d="M351.1 426.317l23.335 23.334-24.042 24.042-23.334-23.335zM229.918 305.024l23.334 23.334-24.041 24.042-23.335-23.335z"/><path fill="#1A1AA2" d="M452.026 228.279l23.334 23.334-24.042 24.042-23.334-23.335z"/><path fill="#1717AF" d="M427.798 204.032l23.335 23.335-24.042 24.041-23.334-23.334z"/><path fill="#011D6A" d="M500.612 276.835l23.335 23.335-24.042 24.041-23.334-23.334z"/><path fill="#00185C" d="M379.43 155.541l23.335 23.335-24.042 24.041-23.334-23.334z"/><path fill="#0E0D86" d="M252.126 476.96l23.334 23.335-24.041 24.041-23.335-23.334z"/><path fill="#081A73" d="M179.314 404.134l23.334 23.335-24.041 24.041-23.335-23.334z"/><path fill="#08124C" d="M300.704 525.629l23.334 23.334-24.041 24.042-23.335-23.334 24.042-24.042"/><path fill="#051051" d="M130.798 355.566l23.335 23.335-24.042 24.041-23.334-23.334 24.041-24.042"/><path fill="#000F31" d="M324.912 549.717l23.334 23.334-24.041 24.042-23.335-23.335zM106.67 331.495l23.334 23.335-24.041 24.042-23.335-23.335 24.042-24.042"/><path fill="#000D2A" d="M374 549.142l23.334 23.335-24.041 24.041-23.335-23.334L374 549.142M131.724 306.767l23.335 23.335-24.042 24.042-23.334-23.335 24.041-24.042"/><path fill="#0722A5" d="M401.523 327.348l23.334 23.335-24.042 24.041-23.334-23.334z"/><path fill="#0F279D" d="M328.71 254.522l23.334 23.334-24.042 24.042-23.334-23.335z"/><path fill="#01035A" d="M450.1 376.017l23.335 23.334-24.042 24.042-23.334-23.335 24.041-24.041"/><path fill="#070867" d="M280.195 205.954l23.334 23.334-24.041 24.042-23.335-23.334 24.042-24.042"/><path fill="#1C095D" d="M474.3 400.217l23.335 23.335-24.041 24.042-23.335-23.335 24.042-24.042"/><path fill="#1A0858" d="M256.066 181.883l23.335 23.335-24.042 24.041-23.334-23.334 24.041-24.042"/><path fill="#0F0140" d="M523.405 399.417l23.334 23.335-24.041 24.042-23.335-23.335zM256.758 132.8l23.334 23.334-24.041 24.041-23.335-23.334z"/><path fill="#040F2A" d="M572.406 398.627l23.335 23.335-24.042 24.041-23.334-23.334z"/><path fill="#000B2F" d="M257.38 83.75l23.334 23.334-24.042 24.042-23.334-23.334L257.38 83.75"/><path fill="#00126C" d="M551.035 177.865l23.334 23.335-24.041 24.041-23.335-23.334z"/><path fill="#020E48" d="M478.222 105.039l23.334 23.334-24.041 24.042-23.335-23.335z"/><path fill="#000F8F" d="M227.821 452.803l23.335 23.335-24.042 24.041-23.334-23.334 24.041-24.042m-24.227-24.247l23.334 23.335-24.041 24.041-23.335-23.334 24.042-24.042"/><path fill="#041457" d="M276.416 501.246l23.334 23.335-24.041 24.041-23.335-23.334z"/><path fill="#001156" d="M155.234 379.952l23.334 23.335-24.041 24.041-23.335-23.334z"/><path fill="#2221B4" d="M377.218 303.19l23.334 23.335-24.041 24.042-23.335-23.335 24.042-24.041"/><path fill="#1E1E9F" d="M352.99 278.944l23.335 23.334-24.042 24.042-23.334-23.335 24.041-24.041"/><path fill="#040B7E" d="M425.812 351.634l23.334 23.334-24.041 24.042-23.335-23.335z"/><path fill="#090E73" d="M304.63 230.34l23.334 23.334-24.041 24.042-23.335-23.335z"/><path fill="#011464" d="M526.738 153.595l23.334 23.334-24.041 24.042-23.335-23.335zm-24.228-24.247l23.335 23.335-24.042 24.041-23.334-23.334z"/><path fill="#01094A" d="M575.325 202.151l23.334 23.335-24.042 24.041-23.334-23.334z"/><path fill="#01083E" d="M454.143 80.857l23.334 23.335-24.041 24.042-23.335-23.335z"/><path fill="#040B5B" d="M202.28 526.777l23.335 23.334-24.041 24.042-23.335-23.335z"/><path fill="#050D61" d="M129.468 453.951l23.335 23.335-24.042 24.041-23.334-23.334z"/><path fill="#011E8C" d="M351.677 377.165l23.335 23.334-24.042 24.042-23.334-23.334z"/><path fill="#001B84" d="M278.865 304.338l23.334 23.334-24.041 24.042-23.335-23.335z"/><path fill="#01075D" d="M400.256 425.833l23.334 23.335-24.042 24.041-23.334-23.334 24.042-24.042"/><path fill="#0B1271" d="M230.35 255.77l23.335 23.335-24.042 24.042-23.335-23.335 24.042-24.042"/><path fill="#011245" d="M424.456 450.034l23.334 23.335-24.041 24.041-23.335-23.334 24.042-24.042M206.221 231.7l23.335 23.334-24.042 24.042-23.334-23.335 24.04-24.041"/><path fill="#010F3E" d="M473.56 449.234l23.334 23.335-24.042 24.041-23.334-23.334zM206.912 182.616l23.335 23.334-24.042 24.042-23.334-23.334z"/><path fill="#010C30" d="M522.562 448.443l23.334 23.335-24.041 24.041-23.335-23.334z"/><path fill="#010E39" d="M207.535 133.566l23.334 23.335-24.041 24.042-23.335-23.335 24.042-24.042"/><path fill="#001875" d="M501.19 227.682l23.334 23.334-24.042 24.042-23.334-23.334z"/><path fill="#00166E" d="M428.377 154.855l23.335 23.334-24.042 24.042-23.334-23.335z"/><path fill="#00124A" d="M549.768 276.35l23.334 23.335-24.041 24.041-23.335-23.334 24.042-24.042"/><path fill="#041034" d="M573.968 300.551l23.335 23.335-24.042 24.041-23.335-23.334 24.042-24.042"/><path fill="#051544" d="M380.105 106.46l23.334 23.334-24.041 24.042-23.335-23.334 24.042-24.042"/><path fill="#041034" d="M355.81 82.47l23.335 23.334-24.042 24.042-23.334-23.335L355.81 82.47"/><path fill="#0F1860" d="M177.977 502.62l23.334 23.334-24.042 24.042-23.334-23.335 24.042-24.041"/><path fill="#071373" d="M153.749 478.373l23.334 23.334-24.041 24.042-23.335-23.335 24.042-24.041"/><path fill="#04028E" d="M226.563 551.175l23.334 23.335-24.041 24.042-23.335-23.335 24.042-24.042M105.38 429.882l23.335 23.334-24.041 24.042-23.335-23.335 24.042-24.041"/><path fill="#2A1992" d="M327.373 353.007l23.335 23.335-24.042 24.041-23.335-23.334 24.042-24.042"/><path fill="#1525B0" d="M303.145 328.76l23.335 23.335-24.042 24.041-23.334-23.334 24.041-24.042"/><path fill="#160372" d="M375.967 401.45l23.335 23.334-24.042 24.042-23.335-23.335zM254.785 280.157l23.334 23.334-24.041 24.042-23.335-23.335z"/><path fill="#0F0E96" d="M476.893 203.412l23.335 23.335-24.042 24.041-23.334-23.334z"/><path fill="#1312A2" d="M452.665 179.165L476 202.499l-24.042 24.042-23.334-23.334z"/><path fill="#1D0376" d="M525.48 251.968l23.334 23.335-24.042 24.041-23.334-23.334z"/><path fill="#1C036E" d="M404.297 130.674l23.335 23.335-24.042 24.041-23.334-23.334z"/><path fill="#0E0D7E" d="M276.993 452.093l23.334 23.334-24.041 24.042-23.335-23.334z"/><path fill="#030286" d="M204.18 379.267l23.335 23.335-24.041 24.041-23.335-23.334z"/><path fill="#001443" d="M325.571 500.762l23.335 23.334-24.042 24.042-23.335-23.334 24.042-24.042M155.666 330.7L179 354.033l-24.042 24.041-23.334-23.334 24.042-24.042"/><path fill="#010E46" d="M349.771 524.963l23.335 23.334-24.042 24.042-23.334-23.335 24.041-24.041M131.537 306.628l23.334 23.335-24.041 24.042-23.335-23.335 24.042-24.042"/><path fill="#00063A" d="M398.867 524.275L422.2 547.61l-24.04 24.04-23.335-23.334 24.042-24.042M132.22 257.657l23.335 23.335-24.042 24.041-23.335-23.334 24.042-24.042"/><path fill="#010F2F" d="M447.877 523.372l23.334 23.334-24.041 24.042-23.335-23.335z"/><path fill="#000E2E" d="M132.85 208.495l23.335 23.335-24.042 24.041-23.334-23.334 24.041-24.042"/><path fill="#22028F" d="M426.381 302.594l23.335 23.334-24.042 24.042-23.334-23.335 24.041-24.041"/><path fill="#2C099F" d="M353.569 229.768l23.334 23.334-24.041 24.042-23.335-23.335 24.042-24.041"/><path fill="#070666" d="M474.976 351.037l23.334 23.335-24.042 24.041-23.334-23.334zM305.07 180.974l23.334 23.334-24.041 24.042-23.335-23.335z"/><path fill="#07075B" d="M499.168 375.35l23.334 23.335-24.041 24.042-23.335-23.335 24.042-24.042"/><path fill="#050452" d="M280.933 157.016l23.335 23.335-24.042 24.041-23.334-23.334 24.041-24.042"/><path fill="#05043B" d="M548.272 374.55l23.334 23.335-24.041 24.041-23.335-23.334zM281.625 107.932l23.334 23.335-24.041 24.041-23.335-23.334z"/><path fill="#00002B" d="M597.273 373.76l23.335 23.335-24.042 24.041-23.334-23.334z"/><path fill="#000B38" d="M575.894 153.11l23.334 23.335-24.042 24.042-23.334-23.335 24.042-24.041m-72.813-72.826l23.335 23.334-24.042 24.042-23.335-23.335 24.042-24.041"/><path fill="#0C196F" d="M252.688 427.936l23.335 23.335-24.042 24.041-23.334-23.334 24.041-24.042"/><path fill="#2C0498" d="M228.46 403.689l23.335 23.334-24.041 24.042-23.335-23.334 24.042-24.042"/><path fill="#02155E" d="M301.283 476.38l23.334 23.334-24.041 24.041-23.335-23.334zM180.1 355.085l23.335 23.335-24.041 24.041-23.335-23.334z"/><path fill="#1515AD" d="M402.085 278.324l23.334 23.334-24.041 24.042-23.335-23.335 24.042-24.041"/><path fill="#162FB0" d="M377.857 254.077l23.335 23.334-24.042 24.042-23.334-23.335 24.041-24.041"/><path fill="#011179" d="M450.679 326.767l23.334 23.334-24.041 24.042-23.335-23.335zM329.497 205.473l23.334 23.334-24.041 24.042-23.335-23.335z"/><path fill="#010B50" d="M551.597 128.84l23.335 23.335-24.042 24.042-23.334-23.335 24.041-24.041m-24.227-24.247l23.334 23.334-24.042 24.042-23.334-23.335 24.041-24.041"/><path fill="#000B2C" d="M599.62 226.421l23.335 23.335-24.041 24.041-23.335-23.334z"/><path fill="#000C33" d="M623.518 200.731l-24.042 24.042-23.334-23.335 24.041-24.041z"/><path fill="#020C2A" d="M502.336 79.437l-24.042 24.042-23.334-23.334L479 56.103z"/></g></svg>