<svg width="62" height="62" viewBox="0 0 62 62" xmlns="http://www.w3.org/2000/svg" xmlns:xlink="http://www.w3.org/1999/xlink"><title>Group 4</title><defs><ellipse id="a" cx="30" cy="30" rx="30" ry="30"/><filter x="-50%" y="-50%" width="200%" height="200%" filterUnits="objectBoundingBox" id="b"><feMorphology radius="1" in="SourceAlpha" result="shadowSpreadInner1"/><feGaussianBlur stdDeviation="4" in="shadowSpreadInner1" result="shadowBlurInner1"/><feOffset in="shadowBlurInner1" result="shadowOffsetInner1"/><feComposite in="shadowOffsetInner1" in2="SourceAlpha" operator="arithmetic" k2="-1" k3="1" result="shadowInnerInner1"/><feColorMatrix values="0 0 0 0 0.22745098 0 0 0 0 0.878431373 0 0 0 0 1 0 0 0 1 0" in="shadowInnerInner1"/></filter><filter x="-50%" y="-50%" width="200%" height="200%" filterUnits="objectBoundingBox" id="c"><feGaussianBlur stdDeviation="2.37" in="SourceGraphic"/></filter></defs><g fill="none" fill-rule="evenodd"><g transform="translate(1 1)"><use fill="#DC2288" xlink:href="#a"/><use fill="#000" filter="url(#b)" xlink:href="#a"/><use stroke="#4FE5FF" stroke-width="2" stroke-linecap="round" stroke-linejoin="round" xlink:href="#a"/></g><path d="M39.254 22.188l4.647-5.249s-8.498-8.49-19.566-5.07-13.478 11.353-13.478 18.904 4.002 18.04 12.666 18.904c8.665.864 19.805-2.577 21.612-7.326 1.808-4.748-4.719-8.081-4.719-8.081s-4.485 5.714-9.874 4.581c-5.389-1.132-9.6-3.335-8.866-8.417.734-5.083 2.659-8.827 8.866-9.554 6.208-.727 8.712 1.308 8.712 1.308z" fill="#6B32A3" opacity=".312" filter="url(#c)" transform="translate(1 1)"/><path d="M15.784 30.834c0 8.733 6.305 15.677 15.166 15.677 7.37 0 11.46-4.643 11.46-4.643l-1.704-2.088s-3.664 4.005-9.713 4.005c-7.115 0-12.141-5.837-12.141-12.993 0-7.072 5.026-12.525 12.056-12.525 5.623 0 9.116 3.323 9.116 3.323l1.576-2.173s-3.62-3.876-10.778-3.876c-8.562 0-15.038 6.603-15.038 15.293z" fill="#FFF"/></g></svg>