<svg width="1086" height="997" viewBox="0 0 1086 997" xmlns="http://www.w3.org/2000/svg"><title>illustration-2</title><defs><linearGradient x1="50%" y1="0%" x2="50%" y2="100%" id="a"><stop stop-color="#5FA8B5" offset="0%"/><stop stop-color="#316F7E" stop-opacity="0" offset="100%"/></linearGradient><linearGradient x1="50%" y1="5.387%" x2="50%" y2="100%" id="b"><stop stop-color="#5786FF" offset="0%"/><stop stop-color="#316F7E" stop-opacity="0" offset="100%"/></linearGradient><linearGradient x1="50%" y1="5.387%" x2="50%" y2="100%" id="c"><stop stop-color="#244DB5" offset="0%"/><stop stop-color="#316F7E" stop-opacity="0" offset="100%"/></linearGradient><linearGradient x1="50%" y1="5.387%" x2="50%" y2="100%" id="d"><stop stop-color="#8B8AED" offset="0%"/><stop stop-color="#316F7E" stop-opacity="0" offset="100%"/></linearGradient><linearGradient x1="50%" y1="5.387%" x2="50%" y2="100%" id="e"><stop stop-color="#5786FF" offset="0%"/><stop stop-color="#3A7E8E" stop-opacity="0" offset="100%"/></linearGradient><linearGradient x1="50%" y1="10.626%" x2="50%" y2="100%" id="f"><stop stop-color="#4342B3" offset="0%"/><stop stop-color="#316F7E" stop-opacity="0" offset="100%"/></linearGradient><linearGradient x1="50%" y1="5.387%" x2="50%" y2="100%" id="g"><stop stop-color="#5E5DCD" offset="0%"/><stop stop-color="#316F7E" stop-opacity="0" offset="100%"/></linearGradient><linearGradient x1="50%" y1="10.126%" x2="50%" y2="100%" id="h"><stop stop-color="#3B65CE" offset="0%"/><stop stop-color="#316F7E" stop-opacity="0" offset="100%"/></linearGradient></defs><g fill="none" fill-rule="evenodd"><path d="M-87-27h1200V997H-87z"/><path fill="url(#a)" opacity=".506" d="M0 24h48v865H0z" transform="translate(884)"/><path fill="#84E7FF" d="M908.042 0l24.041 24.042-24.041 24.042L884 24.042z"/><path fill="url(#a)" opacity=".528" d="M0 24h48v416H0z" transform="translate(986 521)"/><path fill="#84E7FF" d="M1010.042 521l24.041 24.042-24.041 24.042L986 545.042z"/><path fill="url(#a)" opacity=".413" d="M0 24h48v248H0z" transform="translate(429 650)"/><path fill="#2D8499" d="M453.042 650l24.041 24.042-24.041 24.042L429 674.042z"/><path fill="url(#b)" opacity=".398" d="M0 24h48v729H0z" transform="translate(935 201)"/><path fill="#4AA2FF" d="M959.042 201l24.041 24.042-24.041 24.042L935 225.042z"/><path fill="url(#b)" opacity=".528" d="M0 24h48v206H0z" transform="translate(629 622)"/><path fill="#266CB7" d="M653.042 622l24.041 24.042-24.041 24.042L629 646.042z"/><path fill="url(#c)" opacity=".528" d="M0 24h48v206H0z" transform="translate(347 555)"/><path fill="#195DA5" d="M371.042 555l24.041 24.042-24.041 24.042L347 579.042z"/><g opacity=".165"><path fill="url(#c)" opacity=".528" d="M0 24h48v206H0z" transform="translate(250 432)"/><path fill="#195DA5" d="M274.042 432l24.041 24.042-24.041 24.042L250 456.042z"/></g><g opacity=".165"><path fill="url(#c)" opacity=".528" d="M0 24h48v206H0z" transform="translate(60 542)"/><path fill="#195DA5" d="M84.042 542l24.041 24.042-24.041 24.042L60 566.042z"/></g><g opacity=".165"><path fill="url(#c)" opacity=".528" d="M0 24h48v206H0z" transform="translate(0 452)"/><path fill="#195DA5" d="M24.042 452l24.041 24.042-24.041 24.042L0 476.042z"/></g><g opacity=".165"><path fill="url(#c)" opacity=".528" d="M0 24h48v206H0z" transform="translate(1037 345)"/><path fill="#195DA5" d="M1061.042 345l24.041 24.042-24.041 24.042L1037 369.042z"/></g><path fill="url(#d)" opacity=".343" d="M0 24h48v338H0z" transform="translate(1037 583)"/><path fill="#8B8AEE" d="M1061.042 583l24.041 24.042-24.041 24.042L1037 607.042z"/><path fill="url(#e)" opacity=".355" d="M0 24h48v774H0z" transform="translate(833 160)"/><path fill="#7CA3FE" d="M857.042 160l24.041 24.042-24.041 24.042L833 184.042z"/><path fill="url(#b)" opacity=".355" d="M0 23h48v300H0z" transform="translate(833 540)"/><path fill="#4AA2FF" d="M857.042 540l24.041 24.042-24.041 24.042L833 564.042z"/><path fill="url(#d)" opacity=".454" d="M0 25h48v546H0z" transform="translate(884 426)"/><path fill="#8B8AEE" d="M908.042 426l24.041 24.042-24.041 24.042L884 450.042z"/><path fill="url(#f)" opacity=".528" d="M0 24h48v112H2z" transform="translate(172 646)"/><path fill="#3837A2" d="M196.042 646l24.041 24.042-24.041 24.042L172 670.042z"/><g opacity=".383"><path fill="url(#g)" opacity=".528" d="M0 24h48v390H0z" transform="translate(531 427)"/><path fill="#5958D5" d="M555.042 427l24.041 24.042-24.041 24.042L531 451.042z"/></g><g opacity=".383"><path fill="url(#g)" opacity=".528" d="M0 24h48v390H0z" transform="translate(680 473)"/><path fill="#5958D5" d="M704.042 473l24.041 24.042-24.041 24.042L680 497.042z"/></g><path fill="url(#g)" opacity=".472" d="M0 24h48v215H0z" transform="translate(731 666)"/><path fill="#5958D5" d="M755.042 666l24.041 24.042-24.041 24.042L731 690.042z"/><g opacity=".184"><path fill="url(#g)" opacity=".528" d="M0 24h48v390H0z" transform="translate(480 509)"/><path fill="#5958D5" d="M504.042 509l24.041 24.042-24.041 24.042L480 533.042z"/></g><g opacity=".184"><path fill="url(#g)" opacity=".528" d="M0 24h48v390H0z" transform="translate(731 368)"/><path fill="#5958D5" d="M755.042 368l24.041 24.042-24.041 24.042L731 392.042z"/></g><path fill="url(#h)" opacity=".528" d="M0 24h48v387H0z" transform="translate(782 430)"/><path fill="#3169CE" d="M806.042 430l24.041 24.042-24.041 24.042L782 454.042z"/><path fill="url(#d)" opacity=".306" d="M0 24h48v215H0z" transform="translate(782 618)"/><path fill="#8B8AEE" d="M806.042 618l24.041 24.042-24.041 24.042L782 642.042z"/></g></svg>